<?xml version="1.0" encoding="utf-8"?>
<!-- Generator: Adobe Illustrator 27.4.1, SVG Export Plug-In . SVG Version: 6.00 Build 0)  -->
<svg version="1.1" id="Layer_1" xmlns="http://www.w3.org/2000/svg" xmlns:xlink="http://www.w3.org/1999/xlink" x="0px" y="0px"
	 viewBox="0 0 450 450" style="enable-background:new 0 0 450 450;" xml:space="preserve">
<style type="text/css">
	.st0{fill-rule:evenodd;clip-rule:evenodd;fill:#FFFFFF;}
	.st1{fill:#500800;}
	.st2{fill-rule:evenodd;clip-rule:evenodd;fill:#76B82A;}
	.st3{fill-rule:evenodd;clip-rule:evenodd;fill:#53821D;}
	.st4{fill-rule:evenodd;clip-rule:evenodd;fill:#3D6315;}
	.st5{fill-rule:evenodd;clip-rule:evenodd;fill:#5D9021;}
	.st6{fill-rule:evenodd;clip-rule:evenodd;fill:#AFCA0B;}
</style>
<rect x="547.33" y="78.47" class="st0" width="450" height="450"/>
<path class="st1" d="M345.72,187.85c-2.63,1.54-14.56,10.03-17.13,12.12c1.6-4.94,1.93-7.68,1.59-12.68
	c-0.15-2.22-0.94-3.32-1.05,0.46c-0.17,5.7-1.79,12.06-5.15,16.01c-4.31,4.17-10.05,10.55-14.2,15.45
	c1.66-7.35,0.05-16.34-0.04-16.89c-0.47-2.98-1.51-2.97-1.32,0.64c0.04,0.77,0.15,1.55,0.25,2.27c0.88,6.43-2.01,16.39-5.24,21.68
	c-1.35,1.67-2.69,3.33-4.01,4.98c-6.33,7.89-12.46,15.51-18.27,21.35c-2.38,2.4-4.82,4.59-7.29,6.6c4.28-9.81,5.79-25.12,0.35-34.42
	c-1.13-1.93-2-1.55-0.87,0.38c1.88,3.22,2.37,8.53,1.89,14.3c-2.18-4.34-5.49-10.06-9.71-12.56c-1.91-1.14-2.26-0.07-0.35,1.07
	c4.23,2.52,8.5,12.58,9.2,17.6c-1.52,7.55-5,15.04-8.24,18.42l-0.06,0.07c-11.14,7.36-18.04,10.22-24.66,12.75
	c-0.21-8.21-0.94-16.66-2.35-25.46c-1.3-8.09-3.28-16.8-5.58-25.87c0.1-0.35,0.13-0.74,0.09-1.12c-0.49-4.38,2.02-14.39,5.74-20.95
	c1.08-1.9,2.13-3.82,3.18-5.75c11.04-3.03,21.26-5.05,31.66-12.22c2.03-1.39,4.14-3.05,6.3-4.85c0.1-0.01,0.22-0.06,0.31-0.11
	c1.13-0.69,4.17-1.31,6.43-1.15c4.3,0.31,8.69,0.26,13.03,0.62c1.14,0.09,1.15-0.5,0.01-0.59l-4.46-0.45
	c1.12-1.42,2.12-4.14,4.46-6.09c0.89-0.73,0.63-1.1-0.29-0.41c-3.52,2.62-4,5.51-5.54,6.32l-7.28-0.35
	c-1.22-0.09-2.6-0.19-3.87-0.15c0.76-0.65,1.53-1.31,2.3-1.97c2.89-2.47,7.57-6.7,12.51-10.27c5.61-4.05,11.51-7.12,14.16-8.12
	c1.07-0.41,0.83-1.24-0.25-0.85c-1.47,0.52-8.31,3.69-9.81,4.51c1.28-2.35,1.7-3.7,2.01-6.26c0.13-1.14-0.17-1.77-0.58,0.13
	c-0.63,2.87-2.05,5.93-4.11,7.61c-2.57,1.7-6.08,4.38-8.64,6.47c1.53-3.56,1.56-8.25,1.58-8.54c0.04-1.55-0.49-1.65-0.73,0.2
	c-0.05,0.4-0.07,0.8-0.08,1.17c-0.17,3.34-2.57,8.1-4.7,10.48c-0.84,0.71-1.67,1.42-2.5,2.14c-3.95,3.39-7.77,6.67-11.26,9.07
	c-1.44,0.98-2.87,1.87-4.31,2.65c3.09-4.56,5.3-12.16,3.42-17.37c-0.39-1.08-0.87-0.97-0.48,0.11c0.65,1.81,0.4,4.54-0.39,7.41
	c-0.7-2.41-1.84-5.6-3.72-7.27c-0.86-0.76-1.14-0.25-0.28,0.51c1.9,1.67,3.11,7.17,2.99,9.77c-1.48,3.68-3.94,7.13-5.9,8.53
	l-0.04,0.03c-6.48,2.81-13.33,4.1-20.08,5.79c2.81-5.14,6.53-10.23,8.85-15.51c3.62-8.24,5.61-16.52,8.98-22.84l0.04-0.03
	c1.75-1.72,6.16-3.47,10.89-4.1c3.39,0.54,10.6,3.24,12.86,5.71c1.02,1.11,1.67,0.94,0.65-0.17c-2.25-2.45-6.47-4.48-9.62-5.84
	c3.71-0.1,7.26,0.33,9.64,1.49c1.43,0.7,1.55,0.21,0.12-0.48c-6.87-3.34-16.69-2.94-22.51-0.81c0.96-1.33,2.05-2.64,3.28-3.91
	c2.99-3.11,7.11-6.33,11.37-9.67c0.89-0.7,1.79-1.41,2.69-2.12c3-1.66,9.12-3,13.46-2.31c0.49,0.08,1.02,0.16,1.53,0.21
	c2.39,0.22,2.25-0.38,0.23-0.73c-0.38-0.07-6.49-1.24-11.08-0.52c2.62-2.19,5.98-5.24,8.1-7.55c2.11-1.77,6.04-2.5,9.75-2.43
	c2.46,0.05,1.63-0.43,0.15-0.58c-3.32-0.34-5.08-0.24-8.08,0.52c1-1.38,4.86-7.86,5.49-9.3c0.46-1.05-0.64-1.52-1.12-0.48
	c-1.2,2.57-4.97,8.07-10.02,13.01c-4.46,4.35-9.77,8.26-12.88,10.7c-0.83,0.65-1.67,1.3-2.48,1.95c0-1.35-0.18-2.84-0.35-4.17
	l-0.74-7.85c0.98-1.44,4.73-1.21,8.02-4.29c0.86-0.8,0.37-1.17-0.55-0.42c-2.44,2-5.96,2.36-7.76,3.19l-0.77-4.87
	c-0.17-1.24-0.94-1.39-0.77-0.14c0.65,4.72,0.76,9.39,1.34,14.06c0.3,2.46-0.37,5.54-1.24,6.56c-0.08,0.09-0.12,0.2-0.14,0.31
	c-2.25,1.85-4.54,3.49-6.08,5.47c-9.39,12.1-13.09,27.95-16.06,32.36c-2.67-5.39-8.83-8.15-10.24-19.34
	c-0.48-3.79-2.25-3.76-1.51-0.01c2.86,14.32,9.8,15.91,10,21.69l-11.44,21.4c-2.01,3.54-4.26,7.53-5.97,11.4
	c-0.86-3.21-1.75-6.46-2.64-9.73c-3.29-12.14-9.24-32.07-12.91-51.9c0.98-1.12,2.01-2.19,3.16-3.16l0.03-0.01
	c1.51-0.66,4.67-0.69,7.77,0.06c1.98,1.15,5.82,4.56,6.64,6.64c0.37,0.93,0.81,0.98,0.44,0.05c-0.81-2.07-2.96-4.35-4.6-5.95
	c2.34,0.83,4.45,1.95,5.66,3.24c0.73,0.77,0.92,0.51,0.19-0.27c-3.48-3.73-9.7-5.84-13.84-5.91c0.92-0.6,1.91-1.15,2.99-1.65
	c2.61-1.22,5.95-2.24,9.41-3.3c0.73-0.22,1.45-0.45,2.18-0.67c2.27-0.32,6.41,0.32,8.95,1.78c0.28,0.17,0.59,0.35,0.9,0.5
	c1.44,0.71,1.49,0.3,0.32-0.4c-0.22-0.13-3.75-2.33-6.78-2.98c2.16-0.74,4.98-1.83,6.85-2.77c1.74-0.6,4.36-0.11,6.66,0.83
	c1.53,0.62,1.12,0.12,0.23-0.32c-1.99-1-3.11-1.36-5.16-1.61c0.96-0.63,4.91-3.74,5.65-4.48c0.54-0.55-0.03-1.1-0.58-0.57
	c-1.37,1.31-5.04,3.84-9.37,5.71c-3.82,1.64-8.07,2.8-10.6,3.58c-0.68,0.21-1.35,0.41-2.01,0.62c0.32-0.84,0.56-1.81,0.78-2.68
	l1.43-5.08c0.96-0.66,3.24,0.38,6.02-0.75c0.73-0.29,0.51-0.64-0.24-0.39c-2,0.66-4.28,0.05-5.61,0.13l0.69-3.22
	c0.19-0.82-0.25-1.1-0.45-0.27c-0.73,3.1-1.78,6.03-2.54,9.09c-0.4,1.6-1.56,3.36-2.34,3.79c-0.07,0.04-0.12,0.09-0.16,0.16
	c-1.85,0.61-3.59,1.24-5.1,1.95c-3.25,1.52-5.83,3.44-8.07,5.61c-0.82-4.7-1.5-9.36-2.04-13.87c10.07-4.87,19.53-8.75,28.26-17.52
	c1.74-1.74,3.51-3.76,5.31-5.93c0.1-0.03,0.2-0.09,0.28-0.17c0.98-0.89,3.86-2.06,6.11-2.31c4.28-0.48,8.59-1.34,12.92-1.78
	c1.14-0.12,1.04-0.7-0.1-0.58l-4.47,0.38c0.84-1.6,1.32-4.46,3.27-6.81c0.74-0.88,0.42-1.19-0.36-0.35
	c-2.98,3.22-2.92,6.15-4.29,7.23l-7.23,1c-1.22,0.14-2.59,0.29-3.83,0.57c0.63-0.78,1.26-1.57,1.9-2.36
	c2.39-2.96,6.21-7.98,10.41-12.39c4.77-5.01,10-9.11,12.43-10.58c0.98-0.6,0.59-1.37-0.4-0.79c-1.35,0.78-7.49,5.15-8.81,6.23
	c0.82-2.54,0.99-3.95,0.82-6.52c-0.08-1.14-0.49-1.71-0.55,0.23c-0.09,2.94-0.93,6.21-2.65,8.24c-2.22,2.14-5.17,5.42-7.3,7.94
	c0.85-3.78,0.02-8.4-0.02-8.69c-0.25-1.54-0.78-1.53-0.68,0.33c0.02,0.4,0.08,0.8,0.13,1.16c0.45,3.31-1.04,8.44-2.69,11.16
	c-0.7,0.85-1.38,1.7-2.06,2.56c-3.27,4.06-6.42,7.98-9.4,10.98c-1.23,1.23-2.48,2.36-3.75,3.4c2.2-5.05,2.98-12.93,0.18-17.71
	c-0.58-0.99-1.03-0.79-0.45,0.19c0.97,1.66,1.23,4.39,0.98,7.35c-1.13-2.24-2.83-5.17-4.99-6.46c-0.98-0.59-1.16-0.03-0.18,0.55
	c2.17,1.29,4.37,6.48,4.73,9.05c-0.78,3.89-2.57,7.73-4.24,9.47l-0.03,0.04c-6.14,4.14-12.99,6.72-19.62,9.81
	c-4.04-14.18,2.86-27.92-1.45-43.6c1.11-1.33,2.3-2.59,3.64-3.72l0.03-0.01c1.5-0.66,4.67-0.69,7.77,0.06
	c1.98,1.15,5.83,4.56,6.64,6.64c0.37,0.94,0.81,0.98,0.44,0.05c-0.81-2.07-2.96-4.35-4.6-5.95c2.34,0.83,4.45,1.95,5.66,3.24
	c0.72,0.78,0.92,0.51,0.19-0.27c-3.48-3.73-9.7-5.84-13.84-5.91c0.92-0.6,1.91-1.15,2.99-1.65c2.61-1.22,5.95-2.24,9.41-3.3
	c0.73-0.22,1.46-0.45,2.18-0.67c2.27-0.32,6.41,0.32,8.95,1.78c0.28,0.17,0.59,0.35,0.9,0.5c1.44,0.71,1.49,0.3,0.32-0.4
	c-0.22-0.13-3.75-2.33-6.78-2.98c2.16-0.74,4.98-1.83,6.85-2.77c1.74-0.6,4.36-0.11,6.66,0.83c1.53,0.62,1.12,0.12,0.24-0.33
	c-1.99-1-3.11-1.36-5.16-1.61c0.96-0.63,4.91-3.74,5.65-4.48c0.54-0.55-0.03-1.1-0.58-0.57c-1.37,1.31-5.03,3.84-9.37,5.71
	c-3.82,1.64-8.07,2.8-10.6,3.58c-0.68,0.21-1.35,0.41-2.01,0.62c0.32-0.84,0.57-1.81,0.78-2.68l1.43-5.08
	c0.96-0.66,3.24,0.38,6.02-0.75c0.73-0.29,0.51-0.64-0.24-0.39c-2,0.66-4.28,0.05-5.61,0.13l0.69-3.22c0.19-0.82-0.25-1.1-0.45-0.27
	c-0.73,3.1-1.78,6.03-2.54,9.09c-0.4,1.6-1.56,3.36-2.34,3.79c-0.07,0.04-0.12,0.09-0.16,0.16c-1.85,0.61-3.59,1.24-5.1,1.95
	c-3.63,1.69-6.42,3.9-8.85,6.37c-0.56-1.64-1.22-3.34-1.93-5.09c0.04-0.1,0.04-0.22,0.02-0.33c-0.27-1.31,0.59-4.35,2.03-6.37
	c2.72-3.83,5.03-7.89,7.85-11.74c0.74-1.01-0.01-1.25-0.74-0.24l-2.99,3.93c-1.19-1.59-4.11-3.58-5.31-6.5
	c-0.45-1.1-1.05-1.01-0.67,0.1c1.42,4.27,4.83,5.85,5.02,7.58l-4.39,6.56c-0.77,1.09-1.64,2.32-2.28,3.5
	c-0.42-0.95-0.84-1.92-1.26-2.89c-1.58-3.63-4.41-9.59-6.26-15.53c-2.1-6.75-2.81-13.38-2.64-16.21c0.06-1.15-1.12-1.25-1.21-0.11
	c-0.13,1.56,0.19,9.09,0.41,10.79c-2.29-2.09-3.78-3.02-6.86-4.3c-1.37-0.57-2.34-0.54-0.15,0.58c3.3,1.7,6.42,4.21,7.44,6.77
	c0.77,3.04,2.27,7.31,3.53,10.49c-3.69-2.81-9.63-4.67-9.99-4.81c-1.95-0.65-2.35-0.19-0.14,0.75c0.48,0.2,0.98,0.37,1.44,0.54
	c4.15,1.46,8.89,5.54,10.75,8.43c0.45,1.05,0.9,2.1,1.36,3.13c2.16,4.97,4.25,9.76,5.42,13.91c0.47,1.71,0.81,3.37,1.03,5
	c-4.12-4.62-12.56-9.64-20.2-9.97c-1.58-0.07-1.7,0.42-0.12,0.49c2.65,0.11,5.97,1.41,9.19,3.26c-3.43-0.3-8.1-0.51-11.24,0.57
	c-1.43,0.49-0.93,0.95,0.5,0.45c3.15-1.09,10.79-0.05,14.02,1.08c2.71,1.97,5.02,4.34,6.41,6.39c3.64,5.96-1.97,25.85-0.52,36.44
	l1.08,9.88c0.31,2.2,0.68,4.62,1.08,7.15c-4.45-1.73-9.23-3.8-16.69-8.73l-0.04-0.05c-2.29-2.38-4.74-7.66-5.82-12.98
	c0.5-3.55,3.51-10.64,6.5-12.41c1.35-0.8,1.09-1.56-0.25-0.75c-2.97,1.77-5.32,5.8-6.86,8.85c-0.33-4.07,0.02-7.81,1.35-10.08
	c0.79-1.36,0.18-1.63-0.62-0.27c-3.83,6.55-2.76,17.35,0.25,24.28c-1.74-1.43-3.46-2.96-5.13-4.65c-4.11-4.13-8.43-9.51-12.89-15.07
	c-0.94-1.16-1.87-2.33-2.82-3.51c-2.28-3.73-4.32-10.75-3.7-15.29c0.06-0.51,0.15-1.06,0.18-1.61c0.13-2.53-0.61-2.56-0.94-0.45
	c-0.06,0.4-1.19,6.73-0.02,11.91c-2.93-3.46-6.97-7.95-10.02-10.89c-2.37-2.79-3.51-7.27-3.64-11.29c-0.08-2.67-0.64-1.9-0.74-0.34
	c-0.24,3.53-0.01,5.46,1.12,8.95c-1.81-1.48-10.23-7.46-12.07-8.56c-1.37-0.79-1.89,0.28-0.56,1.09c3.32,2.01,10.51,7.63,17.04,14.5
	c5.76,6.05,11.01,12.93,14.27,16.99c0.89,1.09,1.75,2.16,2.61,3.23c-1.71-0.36-3.58-0.58-5.25-0.76l-9.89-1.37
	c-1.89-1.47-1.8-5.49-5.89-9.92c-1.07-1.15-1.51-0.73-0.5,0.49c2.67,3.2,3.33,7.14,4.48,9.34l-6.12-0.52
	c-1.57-0.16-1.69,0.64-0.13,0.8c5.94,0.61,11.84,1.78,17.71,2.44c3.09,0.35,7.03,1.94,8.38,3.17c0.12,0.1,0.26,0.19,0.4,0.24
	c2.47,2.96,4.89,5.74,7.28,8.12c12.01,12.07,16.57,14.37,30,20.93c1.34,7.69,2.96,15.89,4.59,22.53
	c-10.45-11.89-29.02-25.18-44.79-26.81c-2.49-0.26-5.25-0.31-8.17-0.27c-0.08-0.08-0.19-0.12-0.3-0.14
	c-1.32-0.23-3.83-2.15-5.18-4.23c-2.57-3.94-5.49-7.57-8.04-11.6c-0.67-1.06-1.17-0.45-0.5,0.6l2.56,4.22
	c-1.92,0.53-4.83,2.52-7.99,2.57c-1.19,0.01-1.33,0.61-0.15,0.66c4.49,0.24,7.21-2.35,8.89-1.88l4.5,6.49
	c0.73,1.12,1.55,2.38,2.42,3.4c-1.04,0.04-2.1,0.08-3.15,0.12c-3.96,0.13-10.54,0.58-16.75,0.12c-7.05-0.52-13.48-2.29-16.05-3.49
	c-1.04-0.48-1.57,0.58-0.54,1.09c1.4,0.69,8.52,3.16,10.19,3.58c-2.79,1.36-4.19,2.41-6.52,4.8c-1.03,1.07-1.36,1.98,0.49,0.35
	c2.8-2.45,6.27-4.43,9.03-4.44c3.11,0.4,7.63,0.57,11.05,0.57c-3.96,2.4-7.88,7.24-8.13,7.53c-1.32,1.58-1.04,2.12,0.65,0.41
	c0.36-0.37,0.71-0.77,1.03-1.14c2.88-3.32,8.42-6.24,11.79-6.91c1.15-0.03,2.28-0.07,3.42-0.12c5.41-0.19,10.64-0.37,14.93,0.07
	c1.76,0.19,3.44,0.48,5.03,0.88c-5.81,2.14-13.57,8.15-16.68,15.14c-0.65,1.45-0.24,1.74,0.41,0.29c1.07-2.42,3.5-5.04,6.41-7.36
	c-1.54,3.08-3.44,7.35-3.59,10.67c-0.06,1.51,0.54,1.21,0.61-0.3c0.14-3.33,3.91-10.06,6.15-12.65c4.02-2.56,8.51-4.07,10.97-3.88
	l0.05,0c16.26,6.26,33.93,22.99,40.27,38.21c0.95,3.54,1.9,7.06,2.86,10.56c2.46,9.02,4.87,17.87,6.92,26.3
	c-2.92-1.16-6.14-2.65-10.97-5.84l-0.03-0.04c-1.61-1.67-3.33-5.39-4.09-9.13c0.35-2.5,2.47-7.48,4.57-8.73
	c0.95-0.56,0.77-1.1-0.17-0.53c-2.09,1.24-3.74,4.08-4.82,6.22c-0.23-2.86,0.01-5.49,0.95-7.09c0.56-0.96,0.13-1.15-0.44-0.19
	c-2.69,4.61-1.94,12.2,0.18,17.07c-1.23-1-2.43-2.08-3.61-3.27c-2.89-2.9-5.92-6.69-9.07-10.6c-0.66-0.81-1.32-1.64-1.98-2.47
	c-1.6-2.62-3.04-7.56-2.6-10.75c0.05-0.36,0.1-0.75,0.12-1.13c0.09-1.78-0.43-1.8-0.66-0.32c-0.04,0.28-0.83,4.73-0.01,8.38
	c-2.06-2.43-4.9-5.59-7.04-7.66c-1.67-1.96-2.47-5.11-2.56-7.94c-0.06-1.88-0.45-1.33-0.52-0.24c-0.17,2.49-0.01,3.84,0.79,6.29
	c-1.27-1.04-7.19-5.25-8.49-6.02c-0.96-0.56-1.33,0.2-0.39,0.77c2.34,1.41,7.39,5.37,11.98,10.2c4.05,4.25,7.74,9.09,10.03,11.94
	c0.62,0.76,1.23,1.52,1.84,2.27c-1.2-0.25-2.52-0.41-3.69-0.54l-6.96-0.96c-1.33-1.03-1.27-3.86-4.14-6.98
	c-0.75-0.81-1.06-0.51-0.35,0.34c1.87,2.25,2.34,5.02,3.15,6.56l-4.3-0.37c-1.1-0.11-1.19,0.45-0.09,0.56
	c4.17,0.43,8.32,1.25,12.45,1.71c2.18,0.25,4.94,1.36,5.89,2.23c0.08,0.07,0.18,0.13,0.28,0.17c1.74,2.08,3.44,4.03,5.12,5.71
	c8.31,8.35,11.54,10.05,20.63,14.49c1.32,5.68,2.44,11.14,3.27,16.3c0.92,5.72,1.16,16.74,1.46,22.19l-20.02-29.1
	c-0.17-0.64-0.48-1.11-0.92-1.18c-6.15-0.46-11.54-0.48-22.58-3.73l-0.05-0.04c-2.89-1.6-6.78-5.94-9.37-10.71
	c-0.56-3.54,0.24-11.2,2.57-13.77c1.05-1.16,0.59-1.81-0.46-0.65c-2.32,2.56-3.38,7.1-3.96,10.47c-1.5-3.79-2.27-7.47-1.67-10.03
	c0.36-1.53-0.31-1.62-0.68-0.08c-1.74,7.39,2.45,17.4,7.36,23.14c-2.09-0.85-4.18-1.82-6.27-2.94c-5.14-2.74-10.85-6.62-16.75-10.63
	c-1.24-0.83-2.48-1.68-3.73-2.53c-3.27-2.89-7.28-9.01-8.02-13.53c-0.09-0.5-0.17-1.06-0.3-1.59c-0.62-2.46-1.33-2.26-1.03-0.15
	c0.06,0.4,0.84,6.78,3.48,11.39c-3.82-2.45-8.99-5.56-12.77-7.47c-3.09-1.97-5.49-5.92-6.79-9.73c-0.86-2.52-1.17-1.63-0.81-0.11
	c0.81,3.45,1.59,5.23,3.7,8.23c-2.17-0.89-11.97-4.13-14.05-4.64c-1.54-0.36-1.72,0.82-0.21,1.21c3.77,0.95,12.29,4.22,20.55,8.87
	c7.28,4.09,14.32,9.13,18.62,12.06c1.17,0.78,2.31,1.56,3.45,2.32c-1.74,0.16-3.59,0.5-5.25,0.81l-9.86,1.6
	c-2.24-0.85-3.33-4.72-8.54-7.76c-1.36-0.79-1.66-0.25-0.33,0.61c3.49,2.28,5.28,5.85,7.02,7.61l-6.01,1.29
	c-1.54,0.31-1.43,1.11,0.11,0.8c5.86-1.16,11.84-1.77,17.65-2.87c3.06-0.57,7.29-0.21,8.94,0.57c0.14,0.06,0.31,0.1,0.45,0.11
	c3.23,2.11,6.36,4.05,9.35,5.63c6.65,3.55,11.34,5.69,15.78,7.19c-4.4,0.67-8.48,1.65-11.37,2.89c-3.5,1.5-2.38,3.06,1.12,1.56
	c7.74-3.33,21.79-2.25,26.31,0.26c1.69,1.84,3.57,3.94,5.51,6.19c-4.13,0.69-8.3,1.91-12.59,4.07c-2.24,1.13-4.6,2.57-7.03,4.18
	c-0.11-0.01-0.23,0-0.33,0.05c-1.23,0.52-4.38,0.26-6.63-0.76c-4.29-1.94-8.71-3.42-13.03-5.44c-1.14-0.53-1.23,0.24-0.09,0.78
	l4.42,2.17c-1.33,1.48-2.72,4.73-5.35,6.47c-0.99,0.66-0.79,1.23,0.24,0.65c3.91-2.22,4.8-5.87,6.47-6.39l7.29,3.03
	c1.22,0.55,2.59,1.16,3.87,1.57c-0.86,0.59-1.72,1.19-2.59,1.79c-3.25,2.25-8.56,6.17-14.04,9.13c-6.21,3.37-12.58,5.34-15.39,5.72
	c-1.14,0.16-1.01,1.34,0.13,1.21c1.56-0.18,8.89-1.94,10.51-2.49c-1.62,2.65-2.23,4.29-2.89,7.57c-0.29,1.45-0.08,2.39,0.6,0.03
	c1.03-3.57,2.89-7.11,5.21-8.6c2.83-1.33,6.74-3.64,9.61-5.49c-2.04,4.16-2.74,10.35-2.78,10.73c-0.26,2.03,0.26,2.34,0.76,0
	c0.11-0.5,0.18-1.03,0.25-1.52c0.63-4.35,3.72-9.79,6.2-12.17c0.94-0.65,1.88-1.29,2.82-1.94c4.45-3.08,8.75-6.06,12.61-8
	c1.58-0.8,3.15-1.45,4.71-1.97c-3.75,4.93-7.04,14.19-5.89,21.74c0.24,1.57,0.74,1.59,0.5,0.02c-0.4-2.62,0.24-6.13,1.44-9.65
	c0.36,3.42,1.05,8.05,2.73,10.92c0.76,1.3,1.11,0.73,0.35-0.57c-1.68-2.88-2.13-10.57-1.64-13.97c2.01-4.33,4.98-8.02,7.14-9.19
	l0.04-0.03c1.64-0.33,3.29-0.55,4.94-0.68c7.33,8.74,13.65,21.55,14.14,27c-0.92,26.15-8.47,51-13.13,76.43
	c-12.92,8.72-62.81-6.68-81.98,5.55c-3.66,2.33-6.2,5.66-7.15,10.37c-8.36,2.42-10.17,13.08-6.01,18.53
	c-2.95,3.17-3.88,5.54-3.81,7.63c-4.75,1.71-6.15,7.83-3.97,11.01c-1.82,1.81-2.51,3.18-2.62,4.39v0.7
	c0.21,2.39,2.51,4.26,2.18,7.93l0.18,0.04c0.56-6.08-4.33-7.04,0.87-12.29c2.32,2.58,6.89,4.32,2.73,9.26l0.05,0.32
	c1.27-1.52,1.91-2.76,2.12-3.8c4.03,0.9-0.45,7.83,1.04,11.33l0.13-0.03c-1.35-3.17,4.47-11.47-1.1-12.33
	c-0.22-3.02-4.21-4.54-5.13-7.19c-1.09-3.2,0.13-6.92,3.71-8.05c0.87,3.74,4.6,6.84,4.49,12.69l0.31,0.07
	c0.18-10.1-8.07-11.68-0.07-20.41c4.17,4.3,11.95,7.17,5.67,15.39l0.11,0.53c1.92-2.51,2.83-4.57,3.04-6.32
	c6.79,1.49,0.21,12.99,3.12,18.81l0.11-0.03l0.09-0.02c-0.03-0.07-0.06-0.14-0.09-0.21c-0.68-1.59-0.44-3.89,0-6.37
	c0.81-4.54,2.28-9.7,0-12.3c-0.69-0.79-1.73-1.35-3.25-1.58c-0.74-4.99-7.56-7.53-9.4-11.93c-2.21-5.3-0.64-11.48,5.17-13.36
	c-0.07,0.85-0.12,1.73-0.11,2.67c0.09,5.73,4.16,9.34,7.58,13.15c2.63,2.92,4.88,5.96,4.67,10.15l0.62,0.26
	c0.26-5.12-2.32-8.62-5.07-11.93c0.72,0.32,1.67,0.64,3.03,1.04c13.4,3.96,11.1,14.06,10.02,23.81l0.41,0.27
	c0.36-3.23,0.97-6.29,1.22-9.17c3.5,1.01,4.71,4.58,3.66,7.64c-0.86,2.5-4.63,3.94-4.83,6.78c-5.24,0.81,0.24,8.64-1.03,11.62
	l0.12,0.03c1.4-3.3-2.82-9.84,0.98-10.68c0.2,0.99,0.8,2.16,2,3.59l0.04-0.3c-3.92-4.67,0.38-6.3,2.57-8.74
	c4.91,4.96,0.3,5.86,0.83,11.6l0.17-0.04c-0.5-5.46,5.18-6.69-0.43-12.27c2.1-3.05,0.7-8.98-3.98-10.46
	c0.23-4.71-0.76-8.96-5.73-12.79c-1.05-0.81-2.35-1.38-3.76-1.89c-0.28-2,2.43-6.16-0.52-6.61c-0.12-1.71-2.38-2.57-2.9-4.07
	c-0.53-1.56-0.1-3.33,1.33-4.21c5.73,3.19,15.06,4.24,11.84,16.05l0.53,0.02c2.92-10.72-1.44-12.81-8.16-15.9l0,0
	c-3.37-1.55-8.49-3.54-6.05-8.42l0,0c0.62-1.24,1.67-2.45,3.02-3.53c2.11-0.64,4.48-1.02,7.05-1.22c-0.37,0.37-0.69,0.75-0.95,1.14
	h0c-0.39,0.59-0.64,1.2-0.71,1.8c-0.61,5.23,10.56,2.79,6.71,11.68l0.28,0.01c2.5-5.77,0.33-6.89-3.02-8.56
	c-1.68-0.83-4.26-1.9-2.53-4.53c0.37-0.56,0.91-1.11,1.56-1.62c4.57-0.22,9.72,0.11,15.14,0.68c-5.52,3.87-6.32,12.33-2.77,16.99
	c-6.46,6.95-3.26,10.07-0.9,14.7c-1.16,0.8-2.13,1.74-2.78,2.72h0c-0.46,0.7-0.76,1.43-0.85,2.16c-0.74,6.28,12.67,3.34,8.05,14.01
	l0.34,0.01c3-6.92,0.4-8.27-3.62-10.27l0,0c-2.01-1-5.12-2.28-3.03-5.44h0c0.53-0.8,1.34-1.59,2.33-2.29c0.78,1.7,1.37,3.62,1.33,6
	l0.31,0.08c0.18-10.1-8.07-11.68-0.07-20.42c4.17,4.3,11.95,7.17,5.67,15.39l0.11,0.53c1.92-2.51,2.83-4.57,3.04-6.32
	c6.79,1.49,0.22,12.99,3.12,18.81l0.21-0.05c-2.63-5.25,6-19.04-3.34-20.46c-0.74-4.99-7.56-7.53-9.4-11.93
	c-2.33-5.56-0.48-12.1,6.07-13.61l0-0.17c4.73,0.57,9.61,1.27,14.45,1.89c1.88,1.56,2.41,4.22,1.61,6.57
	c-0.86,2.5-4.63,3.94-4.83,6.78c-5.24,0.81,0.24,8.64-1.03,11.62l0.12,0.03c1.4-3.31-2.82-9.84,0.98-10.68c0.2,0.99,0.8,2.16,2,3.59
	l0.04-0.3c-3.92-4.67,0.38-6.3,2.57-8.74c4.91,4.96,0.29,5.86,0.82,11.6l0.17-0.04c-0.5-5.46,5.18-6.69-0.43-12.27
	c1.44-2.09,1.24-5.52-0.54-7.96c4.53,0.57,9,1.07,13.27,1.33c-3.96,4.01-4.29,10.96-1.24,14.96c-1.39,1.5-2.31,2.81-2.87,3.99
	c-8.25,2.09-11.53,11.71-7.15,18.62c-8.67,9.33,1.35,11.39,1.19,20.51l0.29,0.07c0.17-9.59-7.66-11.09-0.07-19.38
	c3.96,4.08,11.35,6.81,5.39,14.61l0.11,0.5c1.82-2.39,2.69-4.34,2.89-6c6.45,1.42,0.2,12.33,2.96,17.85l0.2-0.05
	c-2.49-4.99,5.69-18.08-3.17-19.43c-0.7-4.74-7.17-7.14-8.92-11.33c-2.18-5.22-0.49-11.34,5.55-12.87
	c0.06,4.22,4.54,7.16,4.43,13.41l0.29,0.07c0.17-9.59-7.66-11.09-0.07-19.38c3.96,4.08,11.35,6.81,5.39,14.61l0.11,0.5
	c1.82-2.39,2.69-4.34,2.89-6c6.45,1.42,0.2,12.33,2.96,17.85l0.2-0.05c-1.24-2.48,0.3-7.23,1.07-11.55c4.09,1.41,5.47,5.74,4.2,9.46
	c-1.08,3.14-5.8,4.95-6.06,8.5c-6.58,1.01,0.3,10.84-1.29,14.58l0.15,0.04c1.76-4.14-3.54-12.34,1.22-13.4
	c0.25,1.25,1,2.71,2.51,4.5l0.05-0.38c-4.91-5.86,0.48-7.9,3.22-10.97c6.16,6.22,0.37,7.35,1.03,14.55l0.21-0.05
	c-0.63-6.84,6.5-8.4-0.53-15.4c2.56-3.71,0.98-10.81-4.47-12.94c0.48-3.74,0.02-6.88-3.92-7.48c-0.7-4.74-6.61-6.21-8.36-10.39
	c-1.88-4.49-0.89-9.66,3.28-11.98c5.3,0.14,10.19-0.19,14.32-1.33c3.93,1.35,5.38,5.12,4.13,8.49c-1.08,2.9-5.8,4.56-6.06,7.85
	c-6.58,0.93,0.3,10-1.29,13.45l0.15,0.03c1.76-3.82-3.54-11.38,1.22-12.37c0.25,1.15,1,2.5,2.51,4.15l0.05-0.35
	c-4.91-5.4,0.48-7.29,3.22-10.12c6.16,5.74,0.37,6.78,1.04,13.42l0.21-0.05c-0.63-6.31,6.5-7.75-0.54-14.21
	c2.23-2.99,1.32-8.35-2.57-10.98c6.95-2.56,8.48-2.56,15.43,0c-3.88,2.63-4.79,7.99-2.56,10.98c-2.15,1.97-2.97,3.47-3.11,4.79
	c-3.66,1.01-4.77,5.26-3.14,7.44c-4.31,3.96,0.06,4.83-0.33,8.7l0.13,0.03c0.41-4.06-3.14-4.7,0.63-8.22
	c1.68,1.73,4.98,2.89,1.97,6.19l0.03,0.21c0.92-1.01,1.38-1.84,1.54-2.54c2.92,0.6-0.33,5.23,0.75,7.57l0.09-0.02
	c-0.97-2.11,3.24-7.67-0.79-8.24c-0.16-2.01-3.05-3.03-3.71-4.81c-0.8-2.15,0.2-4.57,2.86-5.3c0.39,2.49,2.92,4.52,2.53,8.4
	l0.22,0.04c0.67-6.64-5.13-7.67,1.04-13.42c2.74,2.83,8.14,4.71,3.22,10.11l0.05,0.35c1.51-1.65,2.26-3,2.51-4.15
	c4.76,0.98-0.54,8.54,1.22,12.36l0.15-0.03c-1.59-3.45,5.29-12.52-1.29-13.45c-0.26-3.29-4.98-4.95-6.07-7.86
	c-1.25-3.36,0.2-7.13,4.13-8.48c4.32,1.19,9.46,1.5,15.05,1.31c4.5,2.21,5.61,7.56,3.68,12.19c-1.75,4.18-8.22,6.59-8.92,11.33
	c-3.66,0.56-4.41,3.11-4.22,6.27c-5.66,2-7.33,9.27-4.74,13.04c-7.03,7,0.1,8.55-0.54,15.4l0.21,0.05c0.66-7.2-5.13-8.33,1.04-14.55
	c2.74,3.07,8.14,5.11,3.22,10.97l0.05,0.38c1.5-1.79,2.26-3.26,2.51-4.5c4.76,1.06-0.54,9.26,1.22,13.4l0.15-0.04
	c-1.59-3.74,5.29-13.57-1.29-14.58c-0.26-3.56-4.98-5.36-6.06-8.5c-1.3-3.77,0.15-8.18,4.38-9.52c0.57,4.2,2.18,9.01,0.88,11.62
	l0.2,0.05c2.76-5.52-3.49-16.44,2.96-17.85c0.2,1.66,1.07,3.61,2.89,6l0.11-0.5c-5.97-7.8,1.43-10.53,5.39-14.61
	c7.59,8.29-0.24,9.79-0.07,19.38l0.29-0.07c-0.11-6.24,4.38-9.18,4.44-13.41c6.04,1.53,7.73,7.65,5.55,12.87
	c-1.75,4.18-8.22,6.59-8.92,11.33c-8.87,1.35-0.68,14.44-3.17,19.43l0.2,0.05c2.76-5.52-3.49-16.44,2.96-17.85
	c0.2,1.66,1.07,3.61,2.89,6l0.11-0.5c-5.97-7.8,1.43-10.53,5.39-14.61c7.59,8.29-0.24,9.79-0.07,19.38l0.29-0.07
	c-0.16-9.12,9.49-11.19,0.82-20.51c4.05-5.31,2.15-15.81-6.31-17.75l0.01,0.37c-0.44-1.49-1.46-3.18-3.35-5.22
	c3.05-4,2.72-10.95-1.24-14.96c4.27-0.26,8.74-0.76,13.27-1.33c-1.77,2.44-1.97,5.87-0.54,7.96c-5.6,5.58,0.08,6.82-0.43,12.27
	l0.17,0.04c0.53-5.74-4.09-6.64,0.83-11.6c2.19,2.44,6.49,4.08,2.57,8.74l0.04,0.3c1.2-1.43,1.8-2.6,2-3.59
	c3.8,0.85-0.43,7.38,0.98,10.68l0.12-0.03c-1.27-2.99,4.21-10.82-1.03-11.62c-0.21-2.83-3.97-4.28-4.83-6.78
	c-0.81-2.35-0.28-5.02,1.61-6.58c4.65-0.6,9.35-1.27,13.91-1.83c5.91,1.93,8.82,8.44,6.61,13.72c-1.84,4.41-8.66,6.94-9.4,11.93
	c-9.34,1.42-0.72,15.21-3.34,20.46l0.21,0.05c2.91-5.82-3.67-17.31,3.12-18.81c0.21,1.75,1.12,3.8,3.04,6.32l0.11-0.53
	c-6.28-8.22,1.5-11.09,5.67-15.39c8,8.73-0.25,10.31-0.07,20.42l0.3-0.08c-0.04-2.36,0.57-4.27,1.39-5.95
	c0.96,0.68,1.75,1.46,2.27,2.24h0c2.08,3.16-1.02,4.44-3.03,5.44l0,0c-4.02,2-6.62,3.34-3.62,10.27l0.33-0.01
	c-4.62-10.67,8.79-7.73,8.06-14.01c-0.09-0.72-0.38-1.45-0.85-2.16h0c-0.63-0.95-1.57-1.87-2.69-2.66
	c2.53-4.66,6.06-7.78-0.43-14.76c3.52-4.98,2.93-13.47-3-17.03c5.23-0.54,10.19-0.85,14.63-0.65c1.57,1.2,2.25,2.38,2.03,3.59
	c-0.67,3.66-9.58,2.45-5.84,11.13l0.28-0.01c-3.85-8.89,7.33-6.45,6.71-11.68c-0.13-1.09-0.81-2.1-1.65-2.94
	c2.57,0.19,4.93,0.58,7.04,1.22c7.56,8.02,0.33,10.34-5.14,12.88c-5.47,2.54-8.65,5.4-6.05,14.97l0.52-0.02
	c-3.22-11.81,6.11-12.86,11.84-16.05c1.42,0.88,1.86,2.66,1.33,4.21c-0.52,1.5-2.78,2.37-2.9,4.07c-2.95,0.46-0.24,4.62-0.52,6.61
	c-1.41,0.51-2.71,1.08-3.76,1.89c-4.97,3.82-5.96,8.07-5.73,12.79c-4.68,1.49-6.08,7.41-3.98,10.46c-5.61,5.58,0.08,6.82-0.43,12.27
	l0.17,0.04c0.53-5.74-4.09-6.64,0.83-11.6c2.19,2.45,6.49,4.08,2.57,8.74l0.04,0.3c1.2-1.43,1.8-2.6,2-3.59
	c3.8,0.85-0.43,7.38,0.97,10.68l0.12-0.03c-1.27-2.99,4.21-10.82-1.03-11.62c-0.2-2.84-3.97-4.28-4.83-6.78
	c-1.05-3.05,0.16-6.63,3.66-7.64c0.25,2.89,0.86,5.94,1.22,9.17l0.41-0.27c-1.08-9.75-3.38-19.85,10.02-23.81
	c1.37-0.4,2.32-0.72,3.03-1.04c-2.75,3.31-5.33,6.81-5.07,11.93l0.62-0.26c-0.21-4.2,2.04-7.23,4.67-10.16
	c3.43-3.81,7.5-7.42,7.58-13.15c0.01-0.94-0.03-1.82-0.11-2.67c5.81,1.88,7.38,8.07,5.17,13.36c-1.84,4.41-8.66,6.94-9.4,11.93
	c-1.51,0.23-2.55,0.79-3.25,1.58c-2.29,2.6-0.81,7.76,0,12.31c0.44,2.48,0.68,4.77,0,6.37c-0.03,0.07-0.06,0.14-0.1,0.21l0.1,0.02
	l0.11,0.03c2.91-5.82-3.67-17.31,3.12-18.81c0.21,1.75,1.12,3.8,3.04,6.32l0.12-0.53c-6.28-8.22,1.5-11.09,5.67-15.39
	c8,8.73-0.25,10.31-0.07,20.41l0.31-0.07c-0.1-5.85,3.62-8.94,4.49-12.69c3.58,1.14,4.8,4.86,3.7,8.05
	c-0.91,2.65-4.91,4.18-5.13,7.19c-5.56,0.86,0.25,9.16-1.09,12.33l0.13,0.03c1.49-3.5-2.99-10.43,1.04-11.33
	c0.21,1.05,0.85,2.29,2.12,3.8l0.04-0.32c-4.15-4.95,0.41-6.68,2.73-9.27c5.21,5.26,0.31,6.21,0.88,12.3l0.18-0.04
	c-0.34-3.67,1.96-5.54,2.17-7.93v-0.69c-0.11-1.21-0.81-2.59-2.62-4.4c2.19-3.18,0.79-9.3-3.96-11.01c0.08-2.08-0.86-4.46-3.81-7.63
	c4.17-5.45,2.36-16.12-6.01-18.53c-0.94-4.68-3.49-8-7.15-10.33c-18.65-11.86-66.42,2.23-81.33-4.69
	c-0.99-21.64,7.85-51.49,8.19-78.52c8.59-4.19,14.94-7.5,20.56-11.13c1.66,0.13,3.31,0.34,4.95,0.68l0.04,0.03
	c2.16,1.16,5.14,4.86,7.14,9.19c0.49,3.4,0.04,11.09-1.64,13.97c-0.76,1.3-0.41,1.87,0.35,0.57c1.68-2.87,2.37-7.5,2.73-10.92
	c1.2,3.52,1.83,7.03,1.44,9.65c-0.24,1.57,0.26,1.54,0.5-0.02c1.15-7.55-2.14-16.81-5.89-21.74c1.56,0.53,3.13,1.18,4.71,1.97
	c3.85,1.94,8.16,4.92,12.61,8c0.93,0.65,1.87,1.29,2.82,1.94c2.48,2.38,5.57,7.82,6.2,12.17c0.07,0.49,0.15,1.02,0.25,1.52
	c0.5,2.35,1.02,2.04,0.76,0c-0.05-0.38-0.74-6.57-2.78-10.73c2.87,1.85,6.77,4.16,9.61,5.49c2.32,1.49,4.18,5.03,5.21,8.6
	c0.68,2.36,0.89,1.43,0.6-0.02c-0.66-3.28-1.28-4.92-2.89-7.57c1.62,0.55,8.95,2.31,10.51,2.49c1.14,0.13,1.26-1.06,0.13-1.21
	c-2.81-0.39-9.18-2.36-15.39-5.72c-5.48-2.96-10.78-6.88-14.04-9.13c-0.87-0.6-1.74-1.2-2.59-1.79c1.29-0.4,2.66-1.02,3.87-1.57
	l7.29-3.03c1.67,0.51,2.56,4.16,6.47,6.38c1.02,0.58,1.23,0.01,0.24-0.65c-2.63-1.74-4.02-4.99-5.35-6.47l4.42-2.18
	c1.14-0.53,1.05-1.31-0.09-0.78c-4.32,2.02-8.74,3.5-13.03,5.44c-2.26,1.02-5.4,1.29-6.63,0.76c-0.11-0.05-0.22-0.06-0.34-0.05
	c-2.43-1.6-4.79-3.05-7.03-4.18c-3.8-1.91-7.5-3.09-11.17-3.81c5.24-3.81,10.61-8.61,17.92-15.95c3.38-3.39,6.82-7.32,10.31-11.52
	c0.2-0.07,0.39-0.19,0.56-0.34c1.9-1.74,7.49-3.99,11.88-4.48c8.33-0.94,16.69-2.6,25.12-3.45c2.22-0.23,2.03-1.35-0.19-1.13
	l-8.68,0.73c1.63-3.11,2.57-8.68,6.35-13.23c1.43-1.72,0.81-2.32-0.71-0.68c-5.79,6.27-5.68,11.97-8.34,14.05l-14.05,1.94
	c-2.37,0.27-5.02,0.57-7.44,1.09c1.22-1.51,2.45-3.05,3.69-4.59c4.63-5.76,12.08-15.5,20.25-24.08
	c9.27-9.74,19.44-17.71,24.15-20.58C348.39,188.24,347.64,186.73,345.72,187.85z M139.3,380.49c-1.65,1.42-2,4.02-0.98,5.5
	c-3.36,3.35,0.05,4.09-0.25,7.37l0.1,0.02c0.32-3.44-2.45-3.98,0.49-6.96c1.31,1.46,3.9,2.44,1.54,5.24l0.03,0.18
	c0.72-0.86,1.08-1.56,1.2-2.15c2.13,0.48,0.06,3.93,0.46,6c-1.74-0.62-3.63-1.15-5.41-1.9c-0.82-0.34-1.61-0.73-2.35-1.19
	c-1.95-2.5-3.52-5.15-3.57-8.54c-0.1-6.37,2.12-10.43,5.92-12.92c0.25-0.17,0.51-0.32,0.78-0.47c-0.27,0.39-0.5,0.78-0.7,1.18h0
	l-0.07,0.15c-0.5,1.04-0.75,2.12-0.7,3.19c0.04,1,0.29,1.85,0.7,2.59C137.11,378.89,138.11,379.76,139.3,380.49z M314.27,371.99
	c-0.22-0.46-0.48-0.9-0.77-1.32c0.27,0.15,0.52,0.31,0.77,0.47c3.81,2.49,6.02,6.56,5.92,12.92c-0.05,3.39-1.62,6.03-3.57,8.54
	c-0.74,0.46-1.53,0.85-2.35,1.19c-1.78,0.75-3.67,1.28-5.41,1.9c0.41-2.07-1.67-5.52,0.46-6c0.12,0.6,0.48,1.3,1.2,2.15l0.02-0.18
	c-2.35-2.8,0.23-3.78,1.54-5.25c2.95,2.98,0.18,3.52,0.5,6.96l0.1-0.03c-0.3-3.27,3.11-4.02-0.26-7.37c1.02-1.48,0.67-4.08-0.98-5.5
	c1.2-0.74,2.19-1.6,2.82-2.72c0.41-0.74,0.66-1.58,0.7-2.58C315.02,374.06,314.75,372.99,314.27,371.99z"/>
<path class="st2" d="M157.93,284.52c-3.53-2.94-8.48-2.57-11.27-1.45c-7.56,3.04-7.48,14.43-13.51,18.63
	c5.04-2.03,9.4-1.01,14.71-1.61c6.76-0.76,12.04-7.32,10.32-13.85c-3.27,0.51-6.83,2.04-9.36,4.65c-2.63,2.71-6.22,5.96-9.99,7.04
	c3.56-1.16,7.42-5.63,9.19-7.73C149.05,288.97,152.76,285.57,157.93,284.52z"/>
<path class="st3" d="M166.63,292.07c-3.85-0.08-6.9,2.75-8.14,4.94c-3.37,5.95,2.64,13.37,0.89,19.28c2.24-3.96,5.63-5.58,8.8-8.74
	c4.04-4.03,4.07-11.09-0.48-14.47c-1.88,2.04-3.41,4.91-3.7,7.94c-0.31,3.15-0.96,7.16-2.87,9.83c1.73-2.62,1.92-7.57,1.98-9.87
	C163.14,299.62,163.79,295.46,166.63,292.07z"/>
<path class="st4" d="M169.77,277.99c1.25-3.64-0.53-7.41-2.24-9.26c-4.65-5.01-13.54-1.54-18.64-5c3.1,3.34,3.61,7.05,5.66,11.04
	c2.62,5.07,9.34,7.24,13.93,3.94c-1.38-2.41-3.64-4.74-6.44-5.94c-2.91-1.25-6.53-3.08-8.5-5.71c1.97,2.44,6.63,4.13,8.8,4.88
	C163.62,272.37,167.4,274.26,169.77,277.99z"/>
<path class="st2" d="M181.62,288.99c4.16,1.49,6.28,5.78,6.71,8.64c1.17,7.76-8.31,13.26-8.86,20.32
	c-0.78-5.17-3.75-8.29-5.85-12.99c-2.68-5.98,0.19-13.57,6.44-15.33c1.18,2.96,1.65,6.66,0.72,10.04
	c-0.96,3.51-1.91,8.07-0.96,11.73c-0.78-3.52,1.04-8.91,1.92-11.4C182.27,298.53,183.28,293.79,181.62,288.99z"/>
<path class="st4" d="M202.24,284.54c3.36,1.2,5.06,4.66,5.41,6.97c0.95,6.26-6.7,10.69-7.14,16.38c-0.63-4.17-3.02-6.68-4.72-10.47
	c-2.16-4.82,0.15-10.94,5.2-12.36c0.95,2.39,1.33,5.37,0.58,8.09c-0.78,2.83-1.54,6.51-0.77,9.46c-0.63-2.84,0.84-7.18,1.55-9.19
	C202.76,292.24,203.58,288.42,202.24,284.54z"/>
<path class="st2" d="M207.97,285.02c2.14-1.81,5.17-1.61,6.87-0.94c4.63,1.82,4.64,8.77,8.34,11.31c-3.09-1.21-5.74-0.57-8.99-0.91
	c-4.13-0.43-7.39-4.41-6.37-8.4c2,0.29,4.18,1.21,5.74,2.79c1.62,1.64,3.82,3.61,6.13,4.25c-2.18-0.69-4.56-3.4-5.65-4.67
	C213.41,287.69,211.13,285.63,207.97,285.02z"/>
<path class="st2" d="M173.43,259.04c-2.76,2.34-6.67,2.08-8.87,1.21c-5.98-2.35-5.99-11.32-10.77-14.6
	c3.98,1.56,7.41,0.74,11.6,1.17c5.34,0.55,9.54,5.69,8.22,10.85c-2.58-0.38-5.39-1.56-7.41-3.6c-2.09-2.12-4.94-4.66-7.92-5.49
	c2.81,0.89,5.89,4.39,7.29,6.03C166.41,255.59,169.35,258.25,173.43,259.04z"/>
<path class="st2" d="M120.14,204.61c0.96-5.38-2.36-10.28-5.16-12.5c-7.61-6.02-19.33,0.79-27.24-2.95
	c5.07,4.01,6.6,9.11,10.35,14.25c4.78,6.54,14.68,8.12,20.41,2.48c-2.46-3.08-6.14-5.85-10.33-6.93c-4.35-1.12-9.84-2.9-13.18-6.16
	c3.3,2.99,10.2,4.35,13.41,4.92C110.29,198.07,116,199.89,120.14,204.61z"/>
<path class="st4" d="M132.47,199.99c3.44-2.56,4.19-7.14,3.78-9.91c-1.1-7.53-11.46-9.95-13.95-16.34c0.74,5.01-1.14,8.75-1.76,13.7
	c-0.79,6.3,4.01,12.53,10.31,12.4c0.26-3.08-0.35-6.64-2.17-9.51c-1.88-2.98-4.05-6.95-4.2-10.61c0.27,3.48,3.48,7.97,5,10.03
	C130.38,190.96,132.65,195.07,132.47,199.99z"/>
<path class="st5" d="M138.4,235.19c-2.78-2.32-6.68-2.04-8.88-1.16c-5.96,2.39-5.92,11.36-10.67,14.67
	c3.97-1.59,7.41-0.79,11.59-1.25c5.33-0.59,9.5-5.76,8.15-10.9c-2.58,0.4-5.39,1.6-7.38,3.65c-2.08,2.13-4.91,4.69-7.88,5.54
	c2.81-0.91,5.86-4.43,7.25-6.08C131.4,238.69,134.32,236.01,138.4,235.19z"/>
<path class="st2" d="M138.81,222.76c-0.43-3.59-3.47-6.07-5.66-6.93c-5.98-2.36-12.1,4.21-17.83,3.35c3.98,1.57,5.93,4.51,9.29,7.05
	c4.28,3.23,10.86,2.33,13.41-2.34c-2.15-1.48-5.01-2.53-7.88-2.41c-2.97,0.13-6.79,0.05-9.53-1.38c2.66,1.27,7.3,0.8,9.45,0.55
	C131.32,220.5,135.28,220.56,138.81,222.76z"/>
<path class="st6" d="M149.02,205.42c-4.82-1.08-7.76-5.56-8.62-8.67c-2.36-8.45,7.42-15.85,7.06-23.76
	c1.57,5.63,5.29,8.69,8.27,13.61c3.79,6.27,1.64,15.08-5.06,17.89c-1.71-3.13-2.74-7.17-2.17-11.04c0.59-4.02,1.02-9.22-0.54-13.15
	c1.35,3.8,0.06,10.03-0.58,12.91C147.01,194.92,146.53,200.32,149.02,205.42z"/>
<path class="st2" d="M120.5,147.46c-0.22-4.43-3.73-7.71-6.35-8.95c-7.11-3.38-15.14,4.13-22.08,2.6c4.74,2.25,6.87,6.01,10.77,9.39
	c4.96,4.31,13.08,3.76,16.59-1.74c-2.5-1.99-5.92-3.52-9.43-3.6c-3.65-0.09-8.3-0.51-11.54-2.48c3.15,1.77,8.85,1.59,11.5,1.46
	C111.53,144.07,116.37,144.47,120.5,147.46z"/>
<path class="st4" d="M177.2,187.36c0.88-2.99-0.7-5.98-2.15-7.41c-3.94-3.89-11.02-0.75-15.27-3.37c2.63,2.59,3.18,5.58,4.99,8.73
	c2.3,4.01,7.83,5.52,11.43,2.68c-1.2-1.9-3.12-3.7-5.43-4.57c-2.4-0.9-5.4-2.26-7.09-4.32c1.68,1.9,5.52,3.1,7.3,3.63
	C172.02,183.03,175.15,184.42,177.2,187.36z"/>
<path class="st6" d="M177.66,214.39c-2.68-1.32-3.76-4.37-3.83-6.33c-0.18-5.3,6.62-8.26,7.53-12.95c0.12,3.53,1.87,5.86,2.92,9.18
	c1.33,4.23-1.18,9.1-5.52,9.79c-0.56-2.08-0.59-4.6,0.3-6.8c0.92-2.28,1.91-5.27,1.56-7.8c0.25,2.42-1.39,5.9-2.18,7.5
	C177.98,207.93,176.93,211.03,177.66,214.39z"/>
<path class="st2" d="M174.44,225.93c-2.77,1.11-5.77-0.11-7.27-1.36c-4.07-3.4-1.74-10.44-4.63-14.25c2.71,2.27,5.62,2.51,8.79,3.95
	c4.04,1.83,5.99,6.95,3.61,10.65c-1.92-0.97-3.82-2.63-4.86-4.76c-1.08-2.21-2.65-4.94-4.77-6.37c1.97,1.43,3.47,4.97,4.14,6.63
	C169.83,221.39,171.45,224.25,174.44,225.93z"/>
<path class="st2" d="M184.31,229.63c-0.76-3.03,0.94-5.96,2.46-7.33c4.11-3.73,11.06-0.3,15.43-2.75c-2.74,2.48-3.41,5.45-5.35,8.53
	c-2.47,3.92-8.06,5.2-11.55,2.21c1.28-1.85,3.27-3.58,5.62-4.35c2.44-0.81,5.5-2.04,7.28-4.03c-1.76,1.84-5.65,2.88-7.46,3.33
	C189.68,225.51,186.49,226.77,184.31,229.63z"/>
<path class="st2" d="M186.37,186.2c-2.63-1.14-3.81-4.01-3.96-5.87c-0.42-5.07,5.95-8.21,6.6-12.75c0.28,3.38,2.07,5.52,3.22,8.65
	c1.47,3.98-0.71,8.76-4.83,9.63c-0.63-1.97-0.78-4.38-0.03-6.52c0.77-2.23,1.58-5.14,1.13-7.54c0.35,2.31-1.06,5.71-1.73,7.29
	C186.36,180,185.5,183.02,186.37,186.2z"/>
<path class="st5" d="M195.91,194c-2.15-1.38-2.78-4.07-2.65-5.73c0.35-4.52,6.39-6.38,7.61-10.28c-0.23,3.01,1.04,5.15,1.61,8.06
	c0.73,3.71-1.86,7.61-5.61,7.79c-0.28-1.82-0.06-3.96,0.9-5.74c1-1.85,2.12-4.29,2.06-6.47c-0.02,2.08-1.74,4.88-2.56,6.16
	C196.79,188.55,195.6,191.09,195.91,194z"/>
<path class="st2" d="M213.4,205.18c-2.54-0.23-4.34-2.32-5-3.86c-1.78-4.17,2.73-8.61,2.02-12.63c1.18,2.78,3.29,4.09,5.15,6.41
	c2.36,2.96,1.85,7.61-1.39,9.5c-1.09-1.49-1.88-3.48-1.85-5.5c0.03-2.1-0.1-4.79-1.16-6.69c0.94,1.85,0.71,5.13,0.57,6.65
	C211.66,199.94,211.78,202.73,213.4,205.18z"/>
<path class="st5" d="M209.33,243.29c-3.41-0.31-5.83-3.12-6.7-5.17c-2.38-5.59,3.66-11.55,2.7-16.94c1.59,3.72,4.42,5.49,6.9,8.6
	c3.16,3.97,2.49,10.21-1.86,12.74c-1.46-1.99-2.52-4.67-2.48-7.38c0.04-2.81-0.13-6.42-1.55-8.98c1.27,2.49,0.95,6.88,0.77,8.91
	C206.99,236.27,207.15,240.01,209.33,243.29z"/>
<path class="st5" d="M122.9,160.15c-2.88-1.84-6.51-1.1-8.47-0.01c-5.31,2.96-4.17,11.37-8.24,15.05c3.53-1.97,6.85-1.63,10.72-2.57
	c4.93-1.2,8.21-6.55,6.33-11.21c-2.37,0.68-4.86,2.15-6.48,4.32c-1.69,2.25-4.04,4.99-6.72,6.15c2.52-1.19,4.96-4.86,6.06-6.58
	C116.76,164.28,119.18,161.42,122.9,160.15z"/>
<path class="st2" d="M136.82,164.61c-2.24-0.31-4.22,1.13-5.09,2.33c-2.37,3.24,0.63,7.99-0.8,11.32c1.58-2.16,3.67-2.87,5.74-4.51
	c2.63-2.08,3.13-6.2,0.71-8.49c-1.24,1.07-2.33,2.63-2.71,4.38c-0.39,1.82-1.05,4.12-2.35,5.55c1.19-1.41,1.64-4.29,1.83-5.63
	C134.26,168.79,134.93,166.4,136.82,164.61z"/>
<path class="st3" d="M128.45,148.22c3.09-1.06,4.68-4.21,5.02-6.32c0.93-5.72-6.02-9.86-6.37-15.07c-0.62,3.81-2.84,6.09-4.43,9.54
	c-2.03,4.39,0.03,10.02,4.63,11.37c0.89-2.18,1.27-4.9,0.61-7.4c-0.68-2.6-1.34-5.97-0.61-8.66c-0.61,2.59,0.69,6.58,1.32,8.43
	C129.01,141.18,129.71,144.69,128.45,148.22z"/>
<path class="st2" d="M147.85,134.76c1.67-1.73,1.66-4.33,1.18-5.82c-1.3-4.06-7.24-4.45-9.21-7.76c0.87,2.7,0.17,4.94,0.28,7.73
	c0.14,3.56,3.36,6.56,6.83,5.91c-0.14-1.73-0.8-3.64-2.07-5.06c-1.31-1.48-2.88-3.47-3.29-5.48c0.47,1.9,2.65,4.09,3.68,5.09
	C145.86,129.96,147.5,132.02,147.85,134.76z"/>
<path class="st5" d="M141.04,144.41c-1.09-1.4-3-1.67-4.14-1.48c-3.11,0.53-4.02,4.84-6.65,5.93c2.07-0.35,3.64,0.39,5.69,0.61
	c2.62,0.27,5.16-1.77,5.05-4.38c-1.28-0.08-2.75,0.21-3.92,0.98c-1.22,0.81-2.84,1.74-4.36,1.84c1.44-0.14,3.27-1.51,4.11-2.16
	C137.32,145.36,139,144.38,141.04,144.41z"/>
<path class="st6" d="M154.38,141.09c2.64-0.03,4.68-2.05,5.48-3.58c2.18-4.16-2.12-9.12-1.05-13.22c-1.45,2.77-3.74,3.96-5.84,6.2
	c-2.68,2.86-2.54,7.71,0.65,9.93c1.24-1.45,2.23-3.45,2.36-5.53c0.14-2.17,0.5-4.94,1.75-6.82c-1.13,1.84-1.15,5.24-1.14,6.82
	C156.6,135.83,156.25,138.7,154.38,141.09z"/>
<path class="st2" d="M162.66,160.87c-0.98-2.46-3.59-3.63-5.31-3.82c-4.67-0.53-7.74,5.26-11.95,5.74c3.11,0.35,5.04,2.06,7.89,3.21
	c3.63,1.47,8.11-0.41,9.02-4.19c-1.8-0.64-4.02-0.84-6.02-0.21c-2.07,0.65-4.78,1.32-6.99,0.83c2.12,0.39,5.3-0.82,6.77-1.4
	C156.94,160.7,159.76,159.99,162.66,160.87z"/>
<path class="st5" d="M144.39,120.24c1.86-2.4,1.5-5.67,0.69-7.48c-2.19-4.93-9.72-4.61-12.64-8.49c1.46,3.28,0.89,6.19,1.41,9.68
	c0.66,4.45,5.12,7.79,9.4,6.5c-0.41-2.15-1.51-4.47-3.29-6.08c-1.85-1.67-4.09-3.97-4.89-6.44c0.85,2.33,3.9,4.78,5.33,5.89
	C141.24,114.48,143.58,116.85,144.39,120.24z"/>
<path class="st4" d="M147.97,110.21c1.59-1.12,1.98-3.19,1.82-4.45c-0.42-3.43-5.09-4.63-6.16-7.56c0.28,2.28-0.61,3.96-0.94,6.2
	c-0.43,2.85,1.68,5.73,4.54,5.73c0.15-1.39-0.09-3.02-0.88-4.34c-0.82-1.37-1.76-3.19-1.79-4.86c0.09,1.58,1.5,3.65,2.16,4.6
	C147.11,106.09,148.1,107.97,147.97,110.21z"/>
<path class="st3" d="M176.58,150.53c1.86-2.4,1.5-5.67,0.69-7.48c-2.19-4.93-9.72-4.61-12.64-8.49c1.46,3.28,0.89,6.19,1.41,9.69
	c0.66,4.45,5.12,7.79,9.4,6.5c-0.41-2.15-1.51-4.47-3.29-6.08c-1.85-1.67-4.09-3.97-4.89-6.44c0.85,2.33,3.9,4.78,5.33,5.89
	C173.42,144.76,175.76,147.13,176.58,150.53z"/>
<path class="st3" d="M134.24,86.27c1.45-4.08-0.5-8.34-2.4-10.43c-5.16-5.69-15.2-1.89-20.89-5.84c3.44,3.79,3.97,7.97,6.23,12.47
	c2.88,5.73,10.41,8.25,15.61,4.59c-1.52-2.72-4.03-5.37-7.17-6.75c-3.25-1.44-7.3-3.54-9.49-6.52c2.19,2.77,7.4,4.72,9.83,5.59
	C127.4,79.88,131.62,82.05,134.24,86.27z"/>
<path class="st2" d="M148.16,84.8c3.43-0.52,5.7-3.5,6.46-5.64c2.07-5.79-4.4-11.45-3.76-16.95c-1.38,3.86-4.13,5.81-6.45,9.11
	c-2.96,4.2-1.89,10.46,2.66,12.76c1.35-2.1,2.27-4.88,2.06-7.61c-0.21-2.84-0.26-6.5,1.02-9.17c-1.13,2.59-0.54,7.01-0.23,9.05
	C150.09,77.56,150.16,81.36,148.16,84.8z"/>
<path class="st3" d="M163.45,95.59c2.55-1.35,3.51-4.31,3.53-6.2c0.04-5.12-6.59-7.78-7.6-12.29c-0.02,3.41-1.65,5.7-2.57,8.92
	c-1.17,4.11,1.38,8.74,5.58,9.29c0.48-2.02,0.44-4.45-0.47-6.54c-0.95-2.17-1.98-5.03-1.71-7.48c-0.18,2.34,1.5,5.65,2.3,7.18
	C162.98,89.37,164.07,92.33,163.45,95.59z"/>
<path class="st2" d="M136.24,91.02c-2.34-1.69-5.43-1.23-7.12-0.41c-4.6,2.24-4.05,9.37-7.64,12.27c3.06-1.49,5.84-1.05,9.14-1.66
	c4.2-0.77,7.22-5.12,5.85-9.13c-2.03,0.46-4.19,1.58-5.65,3.32c-1.53,1.81-3.63,4.01-5.94,4.85c2.18-0.88,4.4-3.85,5.41-5.25
	C130.88,94.2,133.05,91.9,136.24,91.02z"/>
<path class="st4" d="M187.6,112.38c-1.4-2.52-0.6-5.53,0.42-7.12c2.76-4.31,9.77-2.94,13.07-6.16c-1.84,2.87-1.72,5.68-2.7,8.88
	c-1.26,4.08-5.92,6.58-9.74,4.75c0.69-1.96,2.05-3.98,3.96-5.23c1.98-1.31,4.4-3.14,5.51-5.34c-1.13,2.06-4.33,3.92-5.84,4.77
	C191.38,107.43,188.85,109.32,187.6,112.38z"/>
<path class="st5" d="M195.11,115.39c-0.09-1.63,1.07-2.97,1.98-3.52c2.48-1.51,5.71,0.94,8.19,0.11c-1.65,1.01-2.29,2.47-3.59,3.86
	c-1.66,1.77-4.65,1.88-6.15,0c0.84-0.83,2.03-1.52,3.32-1.68c1.33-0.17,3.02-0.51,4.14-1.35c-1.09,0.77-3.19,0.92-4.16,0.98
	C198.27,113.8,196.51,114.13,195.11,115.39z"/>
<path class="st2" d="M172.07,116.2c-2.78-0.91-4.26-3.71-4.6-5.6c-0.92-5.12,5.26-8.93,5.49-13.62c0.61,3.41,2.64,5.42,4.11,8.49
	c1.88,3.91,0.12,8.99-3.99,10.27c-0.83-1.94-1.21-4.38-0.66-6.63c0.57-2.34,1.12-5.38,0.42-7.78c0.58,2.32-0.53,5.92-1.07,7.58
	C171.47,109.89,170.89,113.05,172.07,116.2z"/>
<path class="st2" d="M192.06,138.95c-1.97-2.17-1.86-5.34-1.22-7.14c1.74-4.9,9-5.15,11.52-9.11c-1.16,3.26-0.4,6.02-0.64,9.42
	c-0.3,4.33-4.35,7.87-8.55,6.94c0.24-2.1,1.12-4.41,2.71-6.09c1.66-1.75,3.64-4.12,4.22-6.55c-0.64,2.3-3.39,4.88-4.68,6.06
	C194.66,133.17,192.59,135.62,192.06,138.95z"/>
<path class="st2" d="M194.77,40.56c-3.91-2.68-4.93-7.72-4.59-10.8c0.91-8.37,12.26-11.48,14.76-18.65
	c-0.61,5.58,1.62,9.63,2.51,15.08c1.14,6.94-3.92,14.03-10.89,14.14c-0.41-3.4,0.12-7.36,2.01-10.61c1.96-3.37,4.19-7.85,4.21-11.91
	c-0.15,3.86-3.52,8.96-5.12,11.3C196.72,30.49,194.37,35.13,194.77,40.56z"/>
<path class="st5" d="M185.79,48.93c0.5-3.55-1.8-6.68-3.69-8.06c-5.13-3.76-12.64,0.99-17.92-1.27c3.42,2.5,4.55,5.81,7.13,9.08
	c3.29,4.17,9.82,4.96,13.43,1.13c-1.69-1.96-4.17-3.68-6.94-4.28c-2.88-0.62-6.51-1.66-8.78-3.71c2.23,1.88,6.79,2.6,8.91,2.9
	C179.18,44.89,182.96,45.94,185.79,48.93z"/>
<path class="st5" d="M199.11,49.45c-0.4-2.85,1.44-5.37,2.96-6.48c4.13-3.02,10.17,0.8,14.41-1.02c-2.75,2.01-3.66,4.67-5.73,7.3
	c-2.65,3.35-7.9,3.99-10.8,0.91c1.36-1.57,3.35-2.96,5.58-3.45c2.32-0.5,5.24-1.34,7.07-2.99c-1.8,1.51-5.46,2.09-7.16,2.33
	C204.43,46.2,201.39,47.04,199.11,49.45z"/>
<path class="st3" d="M186.98,62.48c-0.7-2.8-3.35-4.44-5.18-4.9c-4.96-1.25-9.13,4.55-13.75,4.45c3.3,0.83,5.14,2.96,8.05,4.62
	c3.71,2.12,8.82,0.74,10.36-3.21c-1.85-0.95-4.22-1.49-6.46-1.1c-2.34,0.4-5.36,0.73-7.67-0.12c2.23,0.73,5.85-0.11,7.52-0.52
	C180.83,61.45,183.97,61.1,186.98,62.48z"/>
<path class="st2" d="M185.68,89.73c-1.21-1.81-3.51-2.3-4.92-2.16c-3.84,0.37-5.32,5.55-8.62,6.65c2.56-0.25,4.4,0.8,6.89,1.24
	c3.17,0.56,6.44-1.71,6.53-4.9c-1.55-0.21-3.37,0.01-4.87,0.86c-1.56,0.88-3.62,1.88-5.47,1.86c1.77-0.05,4.12-1.56,5.2-2.28
	C181.06,90.56,183.2,89.52,185.68,89.73z"/>
<path class="st6" d="M187.54,83.36c0.21-3.07-1.95-5.61-3.65-6.67c-4.62-2.9-10.76,1.63-15.41,0.02c3.08,1.93,4.25,4.69,6.66,7.33
	c3.07,3.36,8.71,3.64,11.56,0.14c-1.56-1.57-3.79-2.9-6.2-3.24c-2.5-0.36-5.68-1.02-7.75-2.64c2.03,1.47,5.97,1.8,7.8,1.93
	C181.64,80.31,184.94,80.97,187.54,83.36z"/>
<path class="st2" d="M196.84,85.29c1.62-1.45,1.78-3.8,1.44-5.18c-0.91-3.75-6.25-4.48-7.81-7.58c0.61,2.5-0.16,4.47-0.24,6.99
	c-0.1,3.22,2.61,6.13,5.79,5.77c-0.02-1.57-0.49-3.34-1.54-4.7c-1.09-1.41-2.37-3.31-2.62-5.15c0.3,1.75,2.13,3.86,3,4.82
	C195.35,80.83,196.7,82.8,196.84,85.29z"/>
<path class="st6" d="M219.01,61.98c3.07,1.1,6.29-0.36,7.87-1.79c4.3-3.88,1.47-11.45,4.46-15.73c-2.87,2.58-6.02,2.97-9.42,4.67
	c-4.33,2.16-6.25,7.83-3.5,11.76c2.06-1.14,4.06-3.03,5.11-5.39c1.09-2.45,2.69-5.5,4.94-7.14c-2.09,1.64-3.58,5.57-4.24,7.4
	C223.84,56.84,222.2,60.01,219.01,61.98z"/>
<path class="st2" d="M208.23,72.35c1.31-0.9,1.65-2.59,1.53-3.62c-0.31-2.81-4.12-3.84-4.96-6.25c0.21,1.87-0.54,3.23-0.83,5.06
	c-0.38,2.33,1.32,4.7,3.66,4.74c0.14-1.14-0.04-2.47-0.68-3.56c-0.66-1.13-1.41-2.63-1.42-3.99c0.05,1.3,1.19,3,1.72,3.79
	C207.57,68.97,208.36,70.53,208.23,72.35z"/>
<path class="st2" d="M209.29,59.54c1.87,0.32,3.56-0.84,4.33-1.81c2.07-2.65-0.31-6.7,0.97-9.45c-1.38,1.77-3.15,2.31-4.92,3.62
	c-2.26,1.67-2.79,5.11-0.82,7.08c1.06-0.86,2.02-2.14,2.38-3.6c0.38-1.51,0.99-3.42,2.11-4.58c-1.03,1.15-1.49,3.55-1.68,4.66
	C211.54,56.11,210.92,58.1,209.29,59.54z"/>
<path class="st5" d="M179.21,159.07c2.35,1.44,3.1,4.34,2.99,6.14c-0.28,4.9-6.79,7.04-8.02,11.28c0.19-3.26-1.23-5.55-1.91-8.69
	c-0.87-4,1.86-8.27,5.91-8.55c0.34,1.96,0.15,4.28-0.85,6.23c-1.04,2.02-2.2,4.69-2.09,7.05c-0.03-2.25,1.78-5.31,2.64-6.72
	C178.38,164.98,179.6,162.22,179.21,159.07z"/>
<path class="st2" d="M185.02,154.3c1.95-0.64,2.99-2.6,3.22-3.92c0.65-3.58-3.68-6.26-3.84-9.54c-0.43,2.39-1.85,3.8-2.88,5.95
	c-1.32,2.74-0.09,6.3,2.79,7.19c0.58-1.36,0.85-3.07,0.46-4.65c-0.4-1.64-0.78-3.77-0.29-5.45c-0.41,1.62,0.37,4.15,0.74,5.31
	C185.44,149.88,185.85,152.1,185.02,154.3z"/>
<path class="st4" d="M249.28,65.22c-0.24-4.4,2.89-8.01,5.35-9.51c6.68-4.08,15.41,2.51,22.1,0.28c-4.45,2.72-6.17,6.66-9.68,10.41
	c-4.46,4.77-12.55,5.08-16.59,0c2.27-2.23,5.49-4.09,8.95-4.54c3.59-0.47,8.16-1.37,11.16-3.66c-2.93,2.08-8.59,2.49-11.22,2.64
	C257.8,60.94,253.05,61.84,249.28,65.22z"/>
<path class="st2" d="M234.89,68.39c-1.47-2.03-1.08-4.72-0.36-6.2c1.95-4.01,8.15-3.53,10.68-6.66c-1.3,2.67-0.91,5.09-1.44,7.96
	c-0.67,3.66-4.45,6.29-7.95,5.1c0.4-1.77,1.37-3.65,2.89-4.93c1.58-1.33,3.49-3.16,4.22-5.18c-0.77,1.9-3.35,3.83-4.56,4.72
	C237.66,63.71,235.66,65.61,234.89,68.39z"/>
<path class="st5" d="M224.05,76.51c1.08-1.49,0.79-3.47,0.27-4.55c-1.43-2.94-5.99-2.59-7.84-4.89c0.95,1.96,0.67,3.74,1.06,5.85
	c0.49,2.69,3.27,4.62,5.84,3.75c-0.29-1.3-1.01-2.68-2.12-3.62c-1.16-0.98-2.56-2.32-3.1-3.8c0.56,1.39,2.46,2.82,3.35,3.46
	C222.02,73.08,223.49,74.47,224.05,76.51z"/>
<path class="st2" d="M249.43,75.16c-0.24,1.99,1.08,3.72,2.15,4.48c2.92,2.05,7.08-0.69,10.06,0.52c-1.94-1.37-2.61-3.21-4.09-5.02
	c-1.89-2.3-5.55-2.68-7.54-0.49c0.96,1.08,2.37,2.02,3.93,2.33c1.62,0.32,3.67,0.86,4.96,1.99c-1.27-1.03-3.83-1.39-5.02-1.53
	C253.17,77.36,251.04,76.81,249.43,75.16z"/>
<path class="st5" d="M274.12,82.68c-1.26-2.82-0.11-5.96,1.13-7.55c3.35-4.33,10.7-2.2,14.52-5.32c-2.23,2.89-2.38,5.89-3.73,9.21
	c-1.73,4.23-6.94,6.45-10.84,4.14c0.93-2.02,2.57-4.04,4.72-5.2c2.24-1.2,4.99-2.93,6.38-5.17c-1.4,2.09-5,3.77-6.68,4.52
	C278.62,77.76,275.74,79.53,274.12,82.68z"/>
<path class="st2" d="M264.19,81.63c-1.46-0.69-2.07-2.33-2.12-3.39c-0.14-2.86,3.51-4.51,3.97-7.06c0.09,1.91,1.06,3.15,1.65,4.94
	c0.75,2.27-0.57,4.93-2.91,5.34c-0.32-1.12-0.35-2.48,0.11-3.68c0.48-1.24,1-2.86,0.78-4.23c0.15,1.31-0.7,3.2-1.12,4.07
	C264.31,78.14,263.76,79.82,264.19,81.63z"/>
<path class="st2" d="M242.46,80.69c1.2-1.09,2.95-1.03,3.94-0.68c2.7,0.96,2.84,4.96,5.02,6.35c-1.8-0.64-3.32-0.22-5.19-0.35
	c-2.39-0.17-4.34-2.4-3.83-4.72c1.16,0.13,2.43,0.62,3.36,1.5c0.96,0.91,2.27,2,3.61,2.33c-1.27-0.35-2.69-1.87-3.34-2.58
	C245.65,82.13,244.29,80.98,242.46,80.69z"/>
<path class="st2" d="M253.81,89.52c-1.2-0.4-1.83-1.63-1.97-2.44c-0.38-2.22,2.32-3.85,2.43-5.88c0.25,1.48,1.12,2.36,1.75,3.7
	c0.8,1.7,0.02,3.89-1.77,4.43c-0.35-0.84-0.5-1.9-0.26-2.88c0.26-1.01,0.5-2.33,0.21-3.37c0.24,1.01-0.25,2.56-0.49,3.28
	C253.57,86.79,253.31,88.16,253.81,89.52z"/>
<path class="st2" d="M231.51,90.26c1.87-0.92,4.01-0.23,5.12,0.56c3.01,2.15,1.76,7.16,3.97,9.65c-2-1.43-4.03-1.45-6.31-2.28
	c-2.9-1.06-4.53-4.51-3.07-7.21c1.39,0.57,2.79,1.63,3.63,3.05c0.87,1.47,2.1,3.29,3.65,4.17c-1.44-0.89-2.67-3.27-3.22-4.39
	C234.95,93.17,233.67,91.27,231.51,90.26z"/>
<path class="st5" d="M225.65,82.31c1.06-1.79,3.24-2.38,4.6-2.32c3.69,0.15,5.38,5.03,8.6,5.92c-2.46-0.1-4.17,0.99-6.53,1.54
	c-3,0.7-6.25-1.31-6.51-4.36c1.48-0.28,3.23-0.16,4.7,0.57c1.53,0.76,3.56,1.61,5.34,1.5c-1.7,0.04-4.02-1.28-5.1-1.91
	C230.12,82.87,228.02,81.98,225.65,82.31z"/>
<path class="st2" d="M229.23,64.63c-1.06-0.69-1.37-2.03-1.3-2.85c0.18-2.24,3.2-3.16,3.81-5.09c-0.12,1.5,0.5,2.56,0.78,4.01
	c0.35,1.85-0.95,3.78-2.81,3.86c-0.13-0.91-0.02-1.97,0.46-2.85c0.5-0.92,1.07-2.13,1.04-3.21c-0.01,1.03-0.88,2.42-1.29,3.06
	C229.67,61.92,229.08,63.18,229.23,64.63z"/>
<path class="st4" d="M230.11,103.44c1.07-2.91-0.29-5.98-1.63-7.49c-3.65-4.12-10.87-1.49-14.91-4.37c2.43,2.74,2.77,5.75,4.36,8.99
	c2.02,4.13,7.39,6,11.15,3.43c-1.06-1.97-2.84-3.88-5.08-4.9c-2.32-1.06-5.2-2.6-6.74-4.76c1.54,2,5.26,3.45,7,4.09
	C225.27,98.81,228.27,100.39,230.11,103.44z"/>
<path class="st3" d="M240.87,111.32c-1.79-1.18-2.29-3.45-2.17-4.84c0.34-3.79,5.45-5.29,6.52-8.56c-0.23,2.53,0.81,4.34,1.26,6.8
	c0.57,3.13-1.65,6.37-4.8,6.48c-0.21-1.53-0.01-3.33,0.82-4.81c0.86-1.54,1.83-3.58,1.8-5.42c-0.04,1.75-1.52,4.08-2.22,5.15
	C241.66,106.75,240.64,108.87,240.87,111.32z"/>
<path class="st5" d="M234.8,114.19c-0.27-2.48-2.35-4.21-3.86-4.82c-4.11-1.67-8.37,2.81-12.32,2.18c2.73,1.11,4.06,3.15,6.36,4.92
	c2.93,2.26,7.47,1.69,9.26-1.52c-1.47-1.04-3.44-1.78-5.41-1.72c-2.05,0.07-4.68-0.02-6.56-1.02c1.83,0.89,5.03,0.6,6.51,0.45
	C229.65,112.58,232.38,112.64,234.8,114.19z"/>
<path class="st5" d="M226.22,124.74c0.72-1.8-0.07-3.74-0.88-4.71c-2.2-2.64-6.76-1.13-9.23-3.01c1.47,1.76,1.62,3.64,2.55,5.69
	c1.18,2.62,4.5,3.88,6.89,2.35c-0.63-1.25-1.7-2.48-3.08-3.15c-1.43-0.7-3.2-1.72-4.12-3.1c0.92,1.28,3.22,2.25,4.29,2.68
	C223.29,121.76,225.13,122.8,226.22,124.74z"/>
<path class="st6" d="M267.02,107.71c1.1-2.24,3.64-3.16,5.27-3.22c4.43-0.17,6.91,5.5,10.84,6.24c-2.95,0.11-4.89,1.58-7.65,2.47
	c-3.52,1.13-7.6-0.96-8.19-4.58c1.73-0.47,3.84-0.51,5.67,0.23c1.91,0.76,4.41,1.58,6.52,1.27c-2.02,0.22-4.93-1.14-6.27-1.79
	C272.41,107.95,269.82,107.09,267.02,107.71z"/>
<path class="st2" d="M264.61,99.81c-0.88-1.57-0.38-3.46,0.26-4.45c1.72-2.7,6.11-1.84,8.17-3.86c-1.15,1.8-1.07,3.55-1.69,5.56
	c-0.78,2.56-3.7,4.12-6.09,2.98c0.43-1.23,1.28-2.49,2.47-3.27c1.24-0.82,2.75-1.97,3.44-3.34c-0.71,1.29-2.71,2.46-3.65,2.98
	C266.97,96.71,265.39,97.89,264.61,99.81z"/>
<path class="st2" d="M246.18,114.21c2.03-0.89,4.28-0.05,5.42,0.84c3.09,2.43,1.52,7.69,3.75,10.45c-2.06-1.62-4.22-1.73-6.6-2.72
	c-3.03-1.26-4.6-5.01-2.92-7.81c1.45,0.68,2.89,1.86,3.71,3.41c0.85,1.61,2.08,3.6,3.68,4.61c-1.49-1.02-2.68-3.61-3.22-4.82
	C249.69,117.47,248.43,115.39,246.18,114.21z"/>
<path class="st2" d="M300.85,111.86c-3.57-2.82-4.21-7.71-3.69-10.63c1.41-7.95,12.47-10.18,15.33-16.88
	c-0.94,5.3,0.92,9.32,1.42,14.59c0.64,6.71-4.66,13.16-11.33,12.82c-0.17-3.28,0.59-7.04,2.61-10.02c2.09-3.1,4.52-7.24,4.8-11.12
	c-0.4,3.69-3.95,8.34-5.63,10.48C303.36,102.35,300.82,106.64,300.85,111.86z"/>
<path class="st5" d="M282.14,121.4c-1.26-2.82-0.11-5.95,1.12-7.55c3.35-4.33,10.7-2.2,14.52-5.32c-2.23,2.89-2.38,5.89-3.73,9.21
	c-1.73,4.23-6.94,6.45-10.84,4.14c0.93-2.02,2.57-4.04,4.72-5.2c2.23-1.2,4.99-2.93,6.38-5.17c-1.4,2.09-5,3.77-6.68,4.52
	C286.64,116.47,283.76,118.25,282.14,121.4z"/>
<path class="st2" d="M271.49,119.03c0.51-2.35-0.87-4.56-2.07-5.58c-3.25-2.77-8.51,0.04-11.93-1.73c2.17,1.84,2.76,4.11,4.33,6.43
	c2,2.95,6.33,3.8,8.93,1.41c-1.03-1.39-2.61-2.67-4.43-3.21c-1.9-0.56-4.28-1.43-5.7-2.92c1.4,1.37,4.42,2.07,5.82,2.38
	C267.27,116,269.75,116.89,271.49,119.03z"/>
<path class="st6" d="M305.85,122.56c1.14-2.12,3.62-2.91,5.19-2.91c4.27,0,6.46,5.54,10.21,6.41c-2.84,0-4.76,1.35-7.46,2.1
	c-3.43,0.96-7.28-1.2-7.72-4.71c1.69-0.39,3.71-0.35,5.46,0.43c1.81,0.8,4.19,1.68,6.23,1.46c-1.95,0.13-4.71-1.28-5.97-1.96
	C311.03,122.99,308.57,122.06,305.85,122.56z"/>
<path class="st2" d="M299.28,134c1.74-2.26,4.8-2.69,6.63-2.39c4.99,0.83,6.47,7.74,10.69,9.49c-3.33-0.55-5.83,0.64-9.13,1
	c-4.2,0.45-8.28-2.82-8.11-7.01c2.05-0.13,4.41,0.32,6.3,1.56c1.96,1.29,4.57,2.78,7,2.93c-2.31-0.22-5.25-2.42-6.6-3.45
	C305.26,135.51,302.56,133.94,299.28,134z"/>
<path class="st3" d="M253.3,131.37c0.08-2.65,2.13-4.66,3.68-5.43c4.21-2.11,9.11,2.28,13.24,1.27c-2.8,1.41-4.03,3.68-6.32,5.75
	c-2.92,2.64-7.78,2.42-9.94-0.83c1.47-1.22,3.49-2.18,5.59-2.28c2.18-0.1,4.96-0.41,6.87-1.63c-1.86,1.1-5.27,1.06-6.86,1.02
	C258.62,129.23,255.73,129.53,253.3,131.37z"/>
<path class="st2" d="M246.56,144.44c1.96-1.25,4.42-0.74,5.74,0c3.6,2.01,2.83,7.72,5.58,10.21c-2.4-1.34-4.65-1.11-7.27-1.75
	c-3.35-0.81-5.57-4.44-4.29-7.61c1.61,0.46,3.3,1.46,4.4,2.93c1.14,1.53,2.73,3.39,4.56,4.17c-1.71-0.81-3.36-3.3-4.11-4.47
	C250.73,147.24,249.09,145.3,246.56,144.44z"/>
<path class="st2" d="M239.35,132.49c-0.21-1.64,0.86-3.07,1.73-3.7c2.38-1.71,5.82,0.51,8.27-0.51c-1.59,1.14-2.12,2.66-3.33,4.16
	c-1.54,1.91-4.55,2.24-6.2,0.46c0.79-0.9,1.94-1.68,3.22-1.95c1.33-0.27,3.01-0.74,4.07-1.67c-1.04,0.86-3.14,1.17-4.12,1.3
	C242.41,130.66,240.66,131.13,239.35,132.49z"/>
<path class="st2" d="M253.63,139.3c1.09-1.24,2.87-1.39,3.92-1.15c2.86,0.66,3.47,4.71,5.85,5.87c-1.9-0.44-3.4,0.17-5.32,0.25
	c-2.45,0.11-4.69-1.93-4.45-4.34c1.19,0,2.54,0.34,3.59,1.13c1.09,0.82,2.54,1.77,3.95,1.94c-1.33-0.21-2.96-1.58-3.7-2.23
	C257.04,140.38,255.53,139.38,253.63,139.3z"/>
<path class="st2" d="M233.48,157.6c2.4,1.01,3.51,3.6,3.67,5.29c0.44,4.6-5.31,7.53-5.85,11.66c-0.29-3.06-1.94-4.99-3.03-7.82
	c-1.38-3.6,0.54-7.97,4.28-8.81c0.6,1.78,0.76,3.97,0.1,5.92c-0.68,2.03-1.38,4.68-0.94,6.86c-0.35-2.09,0.89-5.2,1.49-6.64
	C233.56,163.23,234.3,160.47,233.48,157.6z"/>
<path class="st2" d="M228.52,141.1c0.6-1.64-0.17-3.36-0.93-4.2c-2.06-2.31-6.11-0.82-8.38-2.43c1.37,1.54,1.57,3.22,2.46,5.04
	c1.14,2.32,4.16,3.35,6.27,1.9c-0.6-1.1-1.6-2.17-2.86-2.74c-1.3-0.59-2.92-1.45-3.79-2.66c0.87,1.12,2.96,1.93,3.94,2.28
	C225.8,138.5,227.49,139.39,228.52,141.1z"/>
<path class="st4" d="M245.63,169c2.41-0.36,4.01-2.45,4.55-3.95c1.47-4.07-3.07-8.05-2.6-11.93c-0.98,2.71-2.92,4.08-4.56,6.39
	c-2.09,2.94-1.35,7.35,1.84,8.97c0.95-1.47,1.6-3.42,1.46-5.34c-0.14-2-0.16-4.57,0.74-6.44c-0.8,1.82-0.39,4.92-0.18,6.36
	C247,163.92,247.04,166.58,245.63,169z"/>
<path class="st2" d="M291.85,158.93c-2.33-1.34-3.13-4.13-3.08-5.89c0.13-4.77,6.4-7.03,7.49-11.19c-0.09,3.17,1.35,5.36,2.1,8.4
	c0.95,3.87-1.58,8.09-5.51,8.47c-0.38-1.9-0.27-4.16,0.65-6.08c0.95-1.99,2.01-4.62,1.84-6.91c0.09,2.19-1.58,5.21-2.38,6.61
	C292.49,153.16,291.37,155.89,291.85,158.93z"/>
<path class="st5" d="M313.85,156.76c0.24-3.89,3.36-6.72,5.67-7.79c6.28-2.89,13.25,3.8,19.36,2.53c-4.18,1.92-6.1,5.2-9.56,8.12
	c-4.41,3.73-11.53,3.16-14.55-1.71c2.22-1.72,5.23-3.02,8.32-3.06c3.2-0.04,7.3-0.36,10.16-2.05c-2.79,1.52-7.79,1.3-10.11,1.16
	C321.77,153.89,317.51,154.19,313.85,156.76z"/>
<path class="st2" d="M302.02,179.5c1.74-2.26,4.8-2.69,6.64-2.39c4.99,0.83,6.47,7.74,10.69,9.49c-3.32-0.55-5.83,0.64-9.13,1
	c-4.2,0.45-8.28-2.82-8.11-7.01c2.05-0.13,4.42,0.32,6.3,1.56c1.96,1.29,4.57,2.78,7,2.93c-2.31-0.22-5.25-2.42-6.6-3.45
	C308,181.01,305.29,179.44,302.02,179.5z"/>
<path class="st4" d="M271.54,168.05c-1.76-1.28-2.16-3.59-1.97-5c0.52-3.82,5.75-5.11,6.98-8.36c-0.35,2.55,0.63,4.43,0.97,6.93
	c0.44,3.19-1.96,6.38-5.16,6.34c-0.15-1.56,0.14-3.37,1.05-4.83c0.94-1.52,2.02-3.54,2.07-5.4c-0.12,1.77-1.72,4.06-2.48,5.11
	C272.55,163.46,271.42,165.56,271.54,168.05z"/>
<path class="st5" d="M287.39,159.38c1.9,1.05,2.6,3.29,2.58,4.71c-0.04,3.86-5.07,5.79-5.88,9.17c0.02-2.57-1.18-4.32-1.83-6.76
	c-0.83-3.11,1.15-6.57,4.32-6.94c0.34,1.53,0.28,3.36-0.43,4.93c-0.74,1.63-1.55,3.77-1.38,5.62c-0.1-1.77,1.2-4.24,1.82-5.38
	C286.96,164.06,287.82,161.84,287.39,159.38z"/>
<path class="st6" d="M263.62,187.15c2.21-1.21,3.01-3.82,3-5.47c-0.04-4.48-5.88-6.71-6.82-10.64c0.03,2.98-1.36,5.01-2.12,7.84
	c-0.97,3.61,1.33,7.62,5.01,8.05c0.4-1.77,0.33-3.9-0.5-5.71c-0.86-1.89-1.8-4.37-1.6-6.52c-0.12,2.05,1.39,4.92,2.11,6.24
	C263.12,181.73,264.12,184.3,263.62,187.15z"/>
<path class="st2" d="M266,169.18c0.7-1.08,0.44-2.45,0.03-3.19c-1.1-2.01-4.27-1.61-5.64-3.16c0.73,1.34,0.59,2.59,0.93,4.05
	c0.43,1.86,2.44,3.12,4.2,2.43c-0.25-0.9-0.79-1.84-1.6-2.46c-0.84-0.64-1.87-1.54-2.29-2.56c0.44,0.95,1.81,1.89,2.46,2.31
	C264.46,166.85,265.54,167.77,266,169.18z"/>
<path class="st2" d="M304.74,154.57c1.62-0.31,2.65-1.77,2.97-2.8c0.88-2.79-2.3-5.36-2.09-8c-0.58,1.86-1.86,2.84-2.91,4.45
	c-1.33,2.05-0.71,5.01,1.49,6.02c0.6-1.02,0.99-2.36,0.84-3.66c-0.15-1.35-0.24-3.08,0.32-4.38c-0.49,1.25-0.13,3.34,0.05,4.31
	C305.52,151.1,305.62,152.9,304.74,154.57z"/>
<path class="st5" d="M275.79,187.59c2.39-2.54,6.17-2.71,8.37-2.12c5.99,1.61,6.97,10.21,11.9,12.84
	c-3.99-1.07-7.19,0.09-11.25,0.13c-5.18,0.04-9.76-4.43-9.06-9.52c2.52,0.09,5.34,0.92,7.49,2.66c2.23,1.81,5.24,3.94,8.19,4.41
	c-2.79-0.55-6.12-3.57-7.64-5C282.9,190.15,279.79,187.91,275.79,187.59z"/>
<path class="st2" d="M348.61,185.79c-2.23-4.7-0.42-10.04,1.6-12.78c5.48-7.44,17.96-4.13,24.28-9.56
	c-3.65,4.96-3.77,10.03-5.93,15.69c-2.75,7.21-11.45,11.15-18.13,7.41c1.48-3.45,4.17-6.92,7.75-8.96c3.72-2.12,8.3-5.14,10.55-8.98
	c-2.28,3.58-8.28,6.56-11.08,7.9C356.01,177.31,351.22,180.42,348.61,185.79z"/>
<path class="st5" d="M301.8,172c-0.58-1.93,0.41-3.86,1.34-4.8c2.52-2.53,7.1-0.55,9.83-2.27c-1.68,1.69-2.02,3.62-3.16,5.66
	c-1.46,2.6-5.01,3.61-7.35,1.8c0.76-1.23,1.99-2.41,3.48-2.98c1.54-0.6,3.47-1.49,4.55-2.83c-1.08,1.24-3.54,2.03-4.69,2.39
	C305.11,169.18,303.11,170.09,301.8,172z"/>
<path class="st6" d="M329.17,185.03c-3.28-0.71-5.29-3.73-5.9-5.83c-1.65-5.72,4.94-10.79,4.66-16.15c1.09,3.81,3.64,5.86,5.68,9.19
	c2.6,4.23,1.2,10.22-3.34,12.16c-1.18-2.11-1.9-4.85-1.53-7.48c0.38-2.73,0.64-6.26-0.44-8.91c0.93,2.57,0.1,6.8-0.32,8.76
	C327.74,177.92,327.45,181.58,329.17,185.03z"/>
<path class="st3" d="M340.54,197.11c3.01-3.26,7.8-3.53,10.61-2.81c7.62,1.96,8.98,12.88,15.28,16.15
	c-5.08-1.31-9.13,0.21-14.29,0.31c-6.57,0.13-12.46-5.5-11.63-11.96c3.2,0.08,6.8,1.09,9.55,3.27c2.86,2.26,6.7,4.93,10.45,5.49
	c-3.55-0.66-7.82-4.45-9.77-6.25C349.6,200.26,345.62,197.47,340.54,197.11z"/>
<path class="st6" d="M334.51,235.16c3.01-3.26,7.8-3.53,10.61-2.81c7.62,1.96,8.98,12.88,15.28,16.15
	c-5.08-1.31-9.13,0.21-14.29,0.31c-6.57,0.12-12.46-5.5-11.63-11.96c3.2,0.08,6.8,1.09,9.55,3.27c2.86,2.26,6.71,4.93,10.46,5.49
	c-3.55-0.66-7.82-4.46-9.77-6.25C343.57,238.31,339.59,235.52,334.51,235.16z"/>
<path class="st3" d="M263.17,225.96c1.02-4.32-1.45-8.44-3.62-10.36c-5.9-5.21-15.7-0.22-21.94-3.61c3.93,3.47,4.94,7.68,7.75,12
	c3.58,5.51,11.53,7.23,16.43,2.92c-1.85-2.6-4.71-5.02-8.06-6.07c-3.48-1.1-7.84-2.79-10.4-5.58c2.54,2.57,8.07,3.98,10.65,4.59
	C255.49,220.22,260.03,221.95,263.17,225.96z"/>
<path class="st2" d="M273.3,222.66c2.16-2.28,2.12-5.69,1.48-7.64c-1.75-5.3-9.54-5.74-12.15-10.05c1.17,3.53,0.29,6.47,0.46,10.12
	c0.22,4.66,4.48,8.55,9.02,7.66c-0.21-2.26-1.1-4.76-2.77-6.6c-1.74-1.91-3.81-4.51-4.38-7.13c0.64,2.48,3.52,5.32,4.88,6.61
	C270.64,216.4,272.81,219.08,273.3,222.66z"/>
<path class="st2" d="M308.6,198.61c1.68-1.78,1.65-4.43,1.15-5.94c-1.36-4.13-7.42-4.47-9.46-7.82c0.91,2.75,0.22,5.03,0.36,7.88
	c0.17,3.62,3.49,6.65,7.02,5.96c-0.16-1.76-0.85-3.7-2.16-5.14c-1.35-1.49-2.96-3.51-3.41-5.55c0.49,1.93,2.74,4.14,3.8,5.15
	C306.53,193.74,308.22,195.83,308.6,198.61z"/>
<path class="st4" d="M305.78,214.19c0.69-3.07-1.08-5.98-2.63-7.33c-4.22-3.67-11.15-0.06-15.6-2.43c2.81,2.44,3.55,5.42,5.58,8.48
	c2.57,3.89,8.23,5.07,11.68,1.98c-1.33-1.84-3.38-3.53-5.76-4.26c-2.48-0.76-5.58-1.93-7.42-3.9c1.82,1.81,5.75,2.78,7.59,3.19
	C300.29,210.16,303.53,211.36,305.78,214.19z"/>
<path class="st6" d="M281.51,235.5c-2.42-2.01-2.79-5.4-2.38-7.42c1.11-5.48,8.8-6.84,10.89-11.43c-0.74,3.65,0.48,6.46,0.74,10.12
	c0.33,4.66-3.44,9.03-8.06,8.68c-0.06-2.27,0.53-4.86,1.97-6.89c1.5-2.11,3.25-4.93,3.51-7.61c-0.34,2.54-2.87,5.71-4.07,7.15
	C283.42,228.96,281.58,231.88,281.51,235.5z"/>
<path class="st6" d="M268.31,259.4c2.14-3.49,1.17-7.82-0.18-10.13c-3.67-6.28-13.7-4.73-18.2-9.51c2.44,4.18,2.11,8.16,3.33,12.77
	c1.55,5.87,8.02,9.68,13.56,7.31c-0.87-2.82-2.68-5.76-5.31-7.66c-2.73-1.97-6.07-4.71-7.51-7.9c1.48,2.99,5.93,5.82,8.01,7.1
	C263.23,252.14,266.71,254.98,268.31,259.4z"/>
<path class="st2" d="M329.63,219.55c-1.28-2.11-0.68-4.72,0.14-6.11c2.23-3.78,8.28-2.81,11-5.68c-1.48,2.51-1.3,4.91-2.04,7.69
	c-0.95,3.54-4.87,5.81-8.2,4.37c0.53-1.7,1.63-3.47,3.23-4.6c1.65-1.18,3.67-2.82,4.55-4.74c-0.9,1.8-3.59,3.49-4.85,4.26
	C332.72,215.19,330.61,216.89,329.63,219.55z"/>
<path class="st2" d="M320.78,239.53c2.7-1.48,5.91-0.6,7.6,0.49c4.59,2.97,3.08,10.45,6.5,13.99c-3.05-1.98-6.05-1.87-9.47-2.94
	c-4.35-1.36-6.99-6.36-5.02-10.43c2.09,0.75,4.23,2.22,5.56,4.26c1.38,2.12,3.33,4.72,5.67,5.91c-2.19-1.22-4.16-4.65-5.05-6.26
	C326.05,243.59,324.05,240.88,320.78,239.53z"/>
<path class="st5" d="M321.42,299.28c3.75-2.07,8.23-0.84,10.58,0.68c6.39,4.14,4.28,14.55,9.06,19.48c-4.25-2.76-8.43-2.6-13.19-4.1
	c-6.06-1.9-9.73-8.86-6.99-14.53c2.91,1.05,5.89,3.08,7.75,5.93c1.93,2.95,4.63,6.57,7.9,8.23c-3.05-1.69-5.8-6.48-7.04-8.72
	C328.76,304.94,325.97,301.16,321.42,299.28z"/>
<path class="st6" d="M299.4,303.82c4.09,1.28,6.3,5.36,6.83,8.11c1.43,7.47-7.54,13.16-7.8,20.02c-0.95-4.98-3.96-7.89-6.17-12.35
	c-2.82-5.69-0.34-13.15,5.65-15.1c1.26,2.82,1.85,6.39,1.08,9.69c-0.8,3.43-1.54,7.89-0.48,11.4c-0.89-3.38,0.66-8.67,1.42-11.11
	C300.39,313.04,301.19,308.41,299.4,303.82z"/>
<path class="st2" d="M312.53,306.48c2.88,0.53,4.72,3.11,5.31,4.93c1.6,4.95-4.01,9.56-3.61,14.23c-1.06-3.3-3.34-5.02-5.22-7.86
	c-2.39-3.62-1.33-8.89,2.57-10.71c1.09,1.81,1.79,4.18,1.54,6.48c-0.25,2.39-0.38,5.48,0.63,7.77c-0.89-2.21-0.27-5.93,0.04-7.66
	C313.97,312.64,314.13,309.44,312.53,306.48z"/>
<path class="st4" d="M305.57,272.74c-0.42-2.9,1.43-5.47,2.97-6.61c4.17-3.09,10.34,0.75,14.64-1.13c-2.78,2.06-3.69,4.77-5.78,7.46
	c-2.67,3.42-8,4.11-10.97,0.99c1.37-1.61,3.39-3.03,5.65-3.54c2.35-0.53,5.31-1.39,7.16-3.08c-1.81,1.55-5.53,2.16-7.26,2.41
	C310.95,269.4,307.86,270.28,305.57,272.74z"/>
<path class="st2" d="M306.35,283.4c2.28-1.83,5.44-1.54,7.2-0.79c4.79,2.03,4.6,9.29,8.39,12.04c-3.19-1.35-5.98-0.76-9.36-1.2
	c-4.3-0.56-7.59-4.81-6.42-8.95c2.08,0.36,4.33,1.38,5.91,3.08c1.65,1.76,3.89,3.88,6.29,4.61c-2.26-0.78-4.67-3.68-5.76-5.04
	C311.96,286.35,309.64,284.13,306.35,283.4z"/>
<path class="st2" d="M277.42,299.53c2.66,1.23,3.8,4.18,3.92,6.09c0.32,5.19-6.27,8.26-7.04,12.88c-0.21-3.46-1.98-5.69-3.09-8.91
	c-1.41-4.1,0.92-8.94,5.16-9.73c0.6,2.02,0.69,4.49-0.12,6.66c-0.84,2.26-1.74,5.21-1.32,7.68c-0.31-2.37,1.21-5.82,1.94-7.41
	C277.28,305.86,278.23,302.8,277.42,299.53z"/>
<path class="st4" d="M270.58,300.66c0.9,2.79-0.5,5.63-1.82,7.01c-3.6,3.75-10.32,1-14.24,3.56c2.4-2.5,2.83-5.32,4.45-8.32
	c2.06-3.82,7.2-5.38,10.65-2.81c-1.08,1.81-2.83,3.56-4.97,4.43c-2.23,0.91-5.01,2.26-6.54,4.24c1.53-1.83,5.09-3.05,6.76-3.6
	C265.83,304.86,268.73,303.47,270.58,300.66z"/>
<path class="st6" d="M290.13,251.76c1.58-4.14,5.93-6.17,8.81-6.54c7.81-1.01,13.12,8.62,20.19,9.32c-5.2,0.67-8.4,3.59-13.15,5.59
	c-6.06,2.56-13.61-0.48-15.24-6.79c3-1.12,6.72-1.51,10.08-0.51c3.5,1.04,8.05,2.09,11.74,1.21c-3.54,0.71-8.91-1.23-11.39-2.17
	C299.72,251.32,294.99,250.2,290.13,251.76z"/>
</svg>
