<?xml version="1.0" encoding="utf-8"?>
<!-- Generator: Adobe Illustrator 27.4.1, SVG Export Plug-In . SVG Version: 6.00 Build 0)  -->
<svg version="1.1" id="Layer_1" xmlns="http://www.w3.org/2000/svg" xmlns:xlink="http://www.w3.org/1999/xlink" x="0px" y="0px"
	 viewBox="0 0 389.09 232.61" style="enable-background:new 0 0 389.09 232.61;" xml:space="preserve">
<style type="text/css">
	.st0{fill:#7C7C7C;}
	.st1{fill:#2D2D2D;}
	.st2{opacity:0.6;}
	.st3{fill:#444444;}
</style>
<g>
	<g>
		<g>
			<g>
				<g>
					<path d="M96.65,7.7c13.74,0,27.06,9.94,27.06,32.18c0,36.46-56.05,66.73-56.05,66.73S11.62,76.34,11.62,39.89
						c0-22.25,13.32-32.19,27.06-32.18c12.68,0,25.73,8.47,28.98,23.53C70.92,16.17,83.96,7.7,96.65,7.7 M38.67,5.82
						c-7.78,0-14.89,2.96-20.04,8.33c-5.82,6.07-8.9,14.98-8.9,25.74c0,8.69,3.05,17.72,9.07,26.85
						c4.74,7.19,11.34,14.46,19.61,21.62c14.01,12.12,28.22,19.85,28.36,19.93l0.9,0.48l0.9-0.48c0.14-0.08,14.36-7.81,28.36-19.93
						c8.27-7.15,14.86-14.43,19.61-21.62c6.02-9.12,9.07-18.15,9.07-26.85c0-10.77-3.08-19.67-8.9-25.74
						c-5.15-5.37-12.27-8.33-20.05-8.33c-6.86,0-13.67,2.31-19.17,6.5c-4.37,3.33-7.7,7.63-9.81,12.65
						c-2.11-5.01-5.44-9.32-9.81-12.65C52.34,8.13,45.53,5.82,38.67,5.82L38.67,5.82C38.67,5.82,38.67,5.82,38.67,5.82L38.67,5.82z"
						/>
				</g>
			</g>
			<g>
				<g>
					<path d="M243.83,15.75c-5.51-5.22-12.94-8.09-20.9-8.09c-6.65,0-13.15,2.08-18.28,5.86c-4.09,3.01-7.22,6.98-9.23,11.67
						c-2.02-4.69-5.15-8.66-9.23-11.67c-5.14-3.78-11.63-5.86-18.28-5.86h0c-7.97,0-15.39,2.87-20.9,8.09
						c-6.22,5.89-9.51,14.3-9.51,24.3c0,10.5,4.33,20.26,13.25,29.84c7.53,8.09,16.98,14.65,25.31,20.43
						c8.99,6.24,19.37,12.73,19.37,17.07c0-4.34,10.38-10.83,19.37-17.07c8.33-5.78,17.78-12.33,25.31-20.43
						c8.92-9.58,13.25-19.34,13.25-29.84C253.34,30.05,250.05,21.65,243.83,15.75z M195.41,106.36c0-13.94-56.05-29.85-56.05-66.31
						c0-20.47,14.28-30.51,28.53-30.51c12.21,0,24.39,7.37,27.52,21.86c3.13-14.49,15.31-21.86,27.52-21.86
						c14.24,0,28.53,10.03,28.53,30.51C251.45,76.51,195.41,92.42,195.41,106.36z"/>
				</g>
			</g>
			<g>
				<g>
					<path d="M353.24,9.55c20.25,0,35.36,28.42,13.53,52.83c-20.45,22.86-43.61,44.24-43.61,44.24s-23.16-21.38-43.61-44.24
						c-21.84-24.41-6.72-52.83,13.53-52.83c10.06,0,21.4,7.02,30.09,25.05C331.84,16.57,343.17,9.55,353.24,9.55 M293.06,7.66
						c-4.94,0-9.76,1.56-13.94,4.52c-4.05,2.87-7.32,6.9-9.46,11.67c-2.61,5.83-3.37,12.39-2.2,18.96
						c1.31,7.37,4.89,14.37,10.66,20.82c20.28,22.66,43.51,44.15,43.74,44.37l1.28,1.18l1.28-1.18c0.23-0.21,23.46-21.7,43.74-44.37
						c5.77-6.45,9.36-13.45,10.66-20.82c1.17-6.58,0.41-13.13-2.2-18.96c-2.13-4.77-5.4-8.81-9.46-11.68
						c-4.18-2.96-9-4.52-13.94-4.52c-5.73,0-11.51,2.13-16.72,6.16c-5.02,3.89-9.51,9.47-13.37,16.63
						c-3.86-7.16-8.35-12.74-13.37-16.62C304.57,9.79,298.79,7.66,293.06,7.66l0,1.89L293.06,7.66
						C293.06,7.66,293.06,7.66,293.06,7.66L293.06,7.66z"/>
				</g>
			</g>
		</g>
		<g>
			<g>
				<g>
					<path class="st0" d="M38.67,123.42c-7.78,0-14.89,2.96-20.04,8.33c-5.82,6.07-8.9,14.98-8.9,25.74
						c0,8.69,3.05,17.72,9.07,26.85c4.74,7.19,11.34,14.46,19.61,21.62c14.01,12.12,28.22,19.85,28.36,19.93l0.9,0.48l0.9-0.48
						c0.14-0.08,14.36-7.81,28.36-19.93c8.27-7.15,14.86-14.43,19.61-21.62c6.02-9.12,9.07-18.15,9.07-26.85
						c0-10.77-3.08-19.67-8.9-25.74c-5.15-5.37-12.27-8.33-20.05-8.33c-6.86,0-13.67,2.31-19.17,6.5c-4.37,3.33-7.7,7.63-9.81,12.65
						c-2.11-5.01-5.44-9.32-9.81-12.65C52.34,125.73,45.53,123.42,38.67,123.42L38.67,123.42
						C38.67,123.42,38.67,123.42,38.67,123.42L38.67,123.42z"/>
				</g>
			</g>
			<g>
				<g>
					<path class="st0" d="M243.83,133.36c-5.51-5.22-12.94-8.09-20.9-8.09c-6.65,0-13.15,2.08-18.28,5.86
						c-4.09,3.01-7.22,6.98-9.23,11.67c-2.02-4.69-5.15-8.66-9.23-11.67c-5.14-3.78-11.63-5.86-18.28-5.86h0
						c-7.97,0-15.39,2.87-20.9,8.09c-6.22,5.89-9.51,14.3-9.51,24.3c0,10.5,4.33,20.26,13.25,29.84
						c7.53,8.09,16.98,14.65,25.31,20.43c8.99,6.24,19.37,12.73,19.37,17.07c0-4.34,10.38-10.83,19.37-17.07
						c8.33-5.78,17.78-12.33,25.31-20.43c8.92-9.58,13.25-19.34,13.25-29.84C253.34,147.66,250.05,139.25,243.83,133.36z"/>
				</g>
			</g>
			<g>
				<g>
					<path class="st0" d="M293.06,125.27c-4.94,0-9.76,1.56-13.94,4.52c-4.05,2.87-7.32,6.9-9.46,11.67
						c-2.61,5.83-3.37,12.39-2.2,18.96c1.31,7.37,4.89,14.37,10.66,20.82c20.28,22.66,43.51,44.15,43.74,44.37l1.28,1.18l1.28-1.18
						c0.23-0.21,23.46-21.7,43.74-44.37c5.77-6.45,9.36-13.45,10.66-20.82c1.17-6.58,0.41-13.13-2.2-18.96
						c-2.13-4.77-5.4-8.81-9.46-11.68c-4.18-2.96-9-4.52-13.94-4.52c-5.73,0-11.51,2.13-16.72,6.16
						c-5.02,3.89-9.51,9.47-13.37,16.63c-3.86-7.16-8.35-12.74-13.37-16.62C304.57,127.4,298.79,125.27,293.06,125.27l0,1.89
						L293.06,125.27C293.06,125.27,293.06,125.27,293.06,125.27L293.06,125.27z"/>
				</g>
			</g>
		</g>
	</g>
	<g>
		<g>
			<g>
				<path class="st1" d="M67.66,148.84c-6.78-31.39-56.05-34.14-56.05,8.65c0,36.46,56.05,66.73,56.05,66.73
					s56.05-30.27,56.05-66.73C123.71,114.7,74.44,117.46,67.66,148.84z"/>
				<path d="M96.65,125.31c13.74,0,27.06,9.94,27.06,32.18c0,36.46-56.05,66.73-56.05,66.73s-56.05-30.27-56.05-66.73
					c0-22.25,13.32-32.19,27.06-32.18c12.68,0,25.73,8.47,28.99,23.53C70.92,133.78,83.96,125.31,96.65,125.31 M38.67,123.42
					c-7.78,0-14.89,2.96-20.04,8.33c-5.82,6.07-8.9,14.98-8.9,25.74c0,8.69,3.05,17.72,9.07,26.85
					c4.74,7.19,11.34,14.46,19.61,21.62c14.01,12.12,28.22,19.85,28.36,19.93l0.9,0.48l0.9-0.48c0.14-0.08,14.36-7.81,28.36-19.93
					c8.27-7.15,14.86-14.43,19.61-21.62c6.02-9.12,9.07-18.15,9.07-26.85c0-10.77-3.08-19.67-8.9-25.74
					c-5.15-5.37-12.27-8.33-20.05-8.33c-6.86,0-13.67,2.31-19.17,6.5c-4.37,3.33-7.7,7.63-9.81,12.65
					c-2.11-5.01-5.44-9.32-9.81-12.65C52.34,125.73,45.53,123.42,38.67,123.42L38.67,123.42C38.67,123.42,38.67,123.42,38.67,123.42
					L38.67,123.42z"/>
			</g>
			<g>
				<path class="st2" d="M67.66,151.32c0-0.93,0-2.47,0-2.47c-3.74-16.75-18.31-23.85-29.62-23.52
					C48.77,126.07,61.55,134.82,67.66,151.32z"/>
				<path class="st2" d="M94.47,125.39c12.31,0.94,23.69,10.46,23.69,30.51c0,34.65-53.27,59.75-53.27,59.75
					s-52.56-24.72-53.25-59.06c-0.01,0.3-0.02,0.6-0.02,0.91c0,36.46,56.05,66.73,56.05,66.73s56.05-30.27,56.05-66.73
					C123.71,134.07,108.94,124.3,94.47,125.39z"/>
			</g>
			<path class="st3" d="M15.02,164.53c-4.82-32.68,21.41-44.71,37.84-32.29C40.79,125.54,15.31,134.99,15.02,164.53z"/>
		</g>
		<g>
			<g>
				<path class="st1" d="M195.41,149.01c-6.78-31.39-56.05-29.37-56.05,8.65c0,36.46,56.05,52.79,56.05,66.73
					c0-13.94,56.05-30.27,56.05-66.73C251.45,119.64,202.18,117.63,195.41,149.01z"/>
				<path d="M243.83,133.36c-5.51-5.22-12.94-8.09-20.9-8.09c-6.65,0-13.15,2.08-18.28,5.86c-4.09,3.01-7.22,6.98-9.23,11.67
					c-2.02-4.69-5.15-8.66-9.23-11.67c-5.14-3.78-11.63-5.86-18.28-5.86h0c-7.97,0-15.39,2.87-20.9,8.09
					c-6.22,5.89-9.51,14.3-9.51,24.3c0,10.5,4.33,20.26,13.25,29.84c7.53,8.09,16.98,14.65,25.31,20.43
					c8.99,6.24,19.37,12.73,19.37,17.07c0-4.34,10.38-10.83,19.37-17.07c8.33-5.78,17.78-12.33,25.31-20.43
					c8.92-9.58,13.25-19.34,13.25-29.84C253.34,147.66,250.05,139.25,243.83,133.36z M195.41,224.39
					c0-13.94-56.05-30.27-56.05-66.73c0-20.47,14.28-30.51,28.53-30.51c12.21,0,24.39,7.37,27.52,21.86
					c3.13-14.49,15.31-21.86,27.52-21.86c14.24,0,28.53,10.03,28.53,30.51C251.45,194.12,195.41,210.45,195.41,224.39z"/>
			</g>
			<g>
				<path class="st2" d="M237.83,131.18c5.33,4.85,8.92,12.26,8.92,22.3c0,34.92-53.69,50.57-53.69,63.92
					c0-13.1-51.66-28.41-53.63-61.95c-0.04,0.72-0.06,1.46-0.06,2.21c0,36.46,56.05,52.79,56.05,66.73
					c0-13.94,56.05-30.27,56.05-66.73C251.45,144.65,245.68,135.86,237.83,131.18z"/>
				<path class="st2" d="M195.41,152.48v-3.46c-5.03-23.3-33.49-28.19-47.81-13.61C153.91,128.69,185.15,120.81,195.41,152.48z"/>
			</g>
			<path class="st3" d="M145.6,166.91c-8.89-32.04,20.22-42.8,36.65-30.38C170.19,129.83,142.24,136.34,145.6,166.91z"/>
		</g>
		<g>
			<g>
				<path class="st1" d="M323.15,152.21c-26.17-54.29-76.31-8.77-43.61,27.77c20.45,22.86,43.61,44.24,43.61,44.24
					s23.16-21.38,43.61-44.24C399.46,143.44,349.32,97.91,323.15,152.21z"/>
				<path d="M353.24,127.16c20.25,0,35.36,28.42,13.53,52.83c-20.45,22.86-43.61,44.24-43.61,44.24s-23.16-21.38-43.61-44.24
					c-21.84-24.41-6.72-52.83,13.53-52.83c10.06,0,21.4,7.02,30.09,25.05C331.84,134.18,343.17,127.16,353.24,127.16 M293.06,125.27
					c-4.94,0-9.76,1.56-13.94,4.52c-4.05,2.87-7.32,6.9-9.46,11.67c-2.61,5.83-3.37,12.39-2.2,18.96
					c1.31,7.37,4.89,14.37,10.66,20.82c20.28,22.66,43.51,44.15,43.74,44.37l1.28,1.18l1.28-1.18c0.23-0.21,23.46-21.7,43.74-44.37
					c5.77-6.45,9.36-13.45,10.66-20.82c1.17-6.58,0.41-13.13-2.2-18.96c-2.13-4.77-5.4-8.81-9.46-11.68
					c-4.18-2.96-9-4.52-13.94-4.52c-5.73,0-11.51,2.13-16.72,6.16c-5.02,3.89-9.51,9.47-13.37,16.63
					c-3.86-7.16-8.35-12.74-13.37-16.62C304.57,127.4,298.79,125.27,293.06,125.27l0,1.89L293.06,125.27
					C293.06,125.27,293.06,125.27,293.06,125.27L293.06,125.27z"/>
			</g>
			<path class="st2" d="M374.93,142.29c1.92,9.49-0.56,20.93-10.11,31.61c-20.45,22.86-43.61,44.24-43.61,44.24
				s-23.16-21.38-43.61-44.24c-3.65-4.08-6.26-8.27-8-12.42c1.34,6.08,4.49,12.42,9.93,18.51c20.45,22.86,43.61,44.24,43.61,44.24
				s23.16-21.38,43.61-44.24C378.46,166.9,379.56,152.68,374.93,142.29z"/>
			<path class="st2" d="M323.15,156.75v-4.54c-13.89-28.81-34.53-29.52-45.95-18.36C280.76,130.95,303.97,119.42,323.15,156.75z"/>
			<path class="st3" d="M273.84,163.41c-9.09-28.4,17.11-41.07,33.19-24.57C295.36,129.95,271.62,133.32,273.84,163.41z"/>
		</g>
	</g>
</g>
</svg>
